<?xml version="1.0" encoding="utf-8"?>
<!-- Generator: Adobe Illustrator 19.1.0, SVG Export Plug-In . SVG Version: 6.00 Build 0)  -->
<svg version="1.1" id="Layer_1" xmlns="http://www.w3.org/2000/svg" xmlns:xlink="http://www.w3.org/1999/xlink" x="0px" y="0px"
	 viewBox="-239 380.7 84.5 56.5" style="enable-background:new -239 380.7 84.5 56.5;" xml:space="preserve">
<style type="text/css">
	.st0{fill:#FFFFFF;}
</style>
<g>
	<path class="st0" d="M-237,418.4c1.1,0,2-0.9,2-2v-15c0-1.1-0.9-2-2-2s-2,0.9-2,2v15C-239,417.5-238.1,418.4-237,418.4z"/>
	<path class="st0" d="M-229,393.9v30c0,1.1,0.9,2,2,2s2-0.9,2-2v-30c0-1.1-0.9-2-2-2S-229,392.8-229,393.9z"/>
	<path class="st0" d="M-219.5,382.7v52.5c0,1.1,0.9,2,2,2s2-0.9,2-2v-52.5c0-1.1-0.9-2-2-2S-219.5,381.5-219.5,382.7z"/>
	<path class="st0" d="M-208,393.9v30c0,1.1,0.9,2,2,2s2-0.9,2-2v-30c0-1.1-0.9-2-2-2S-208,392.8-208,393.9z"/>
	<path class="st0" d="M-199,401.4v15c0,1.1,0.9,2,2,2s2-0.9,2-2v-15c0-1.1-0.9-2-2-2S-199,400.3-199,401.4z"/>
	<path class="st0" d="M-188.5,393.9v30c0,1.1,0.9,2,2,2s2-0.9,2-2v-30c0-1.1-0.9-2-2-2S-188.5,392.8-188.5,393.9z"/>
	<path class="st0" d="M-178.9,383.9v50c0,1.1,0.9,2,2,2c1.1,0,2-0.9,2-2v-50c0-1.1-0.9-2-2-2C-178,381.9-178.9,382.8-178.9,383.9z"
		/>
	<path class="st0" d="M-167.5,391.9c-1.1,0-2,0.9-2,2v30c0,1.1,0.9,2,2,2s2-0.9,2-2v-30C-165.5,392.8-166.4,391.9-167.5,391.9z"/>
	<path class="st0" d="M-156.5,399.4c-1.1,0-2,0.9-2,2v15c0,1.1,0.9,2,2,2s2-0.9,2-2v-15C-154.5,400.3-155.4,399.4-156.5,399.4z"/>
</g>
</svg>
