<?xml version="1.0" encoding="utf-8"?>
<!-- Generator: Adobe Illustrator 19.1.0, SVG Export Plug-In . SVG Version: 6.00 Build 0)  -->
<svg version="1.1" id="Layer_1" xmlns="http://www.w3.org/2000/svg" xmlns:xlink="http://www.w3.org/1999/xlink" x="0px" y="0px"
	 viewBox="-220 384.4 46.1 46.1" style="enable-background:new -220 384.4 46.1 46.1;" xml:space="preserve">
<style type="text/css">
	.st0{fill:#FFFFFF;}
</style>
<g>
	<g>
		<path class="st0" d="M-197,384.4c-12.6,0-22.8,10.1-23,22.7c-0.2,13,10.2,23.1,22.5,23.4c12.9,0.3,23.3-10.1,23.6-22.5
			C-173.7,395-184.1,384.4-197,384.4z M-197.3,427.6c-11-0.1-20.1-9.2-19.9-20.5c0.1-11.1,9.2-20,20.3-20c11.2,0,20.2,9.1,20.2,20.3
			C-176.8,418.6-185.9,427.8-197.3,427.6z"/>
		<path class="st0" d="M-197.2,402c-1,0-1.7,0.7-1.7,1.6c0,5.2,0,10.3,0,15.5c0,0.9,0.7,1.6,1.7,1.6c1.1,0,1.7-0.6,1.7-1.6
			c0-2.6,0-5.1,0-7.7c0-2.6,0-5.2,0-7.8C-195.5,402.7-196.2,402-197.2,402z"/>
		<path class="st0" d="M-197.1,395.4c-1.3,0-2.3,1-2.3,2.2c0,1.3,1,2.2,2.2,2.2c1.2,0,2.2-1,2.3-2.2
			C-194.9,396.4-195.9,395.4-197.1,395.4z"/>
	</g>
</g>
</svg>
