<svg xmlns="http://www.w3.org/2000/svg" xmlns:xlink="http://www.w3.org/1999/xlink" version="1.1" x="0px" y="0px" viewBox="0 0 100 125" enable-background="new 0 0 100 100" xml:space="preserve"><path fill="#000000" d="M50,25C36.193,25,25,36.193,25,50C25,63.807,36.193,75,50,75c13.806,0,25-11.193,25-25  C75,36.193,63.807,25,50,25z M50,73C37.317,73,27,62.682,27,50C27,37.318,37.317,27,50,27c12.683,0,23,10.318,23,23  C73,62.682,62.684,73,50,73z M43.947,60.5l18-10.5l-18-10.5V60.5z"/><text x="0" y="115" fill="#000000" font-size="5px" font-weight="bold" font-family="'Helvetica Neue', Helvetica, Arial-Unicode, Arial, Sans-serif">Created by Sasha Mescheryakov</text><text x="0" y="120" fill="#000000" font-size="5px" font-weight="bold" font-family="'Helvetica Neue', Helvetica, Arial-Unicode, Arial, Sans-serif">from the Noun Project</text></svg>