<svg xmlns="http://www.w3.org/2000/svg" xmlns:xlink="http://www.w3.org/1999/xlink" version="1.1" x="0px" y="0px" viewBox="0 0 100 125" enable-background="new 0 0 100 100" xml:space="preserve"><g><g><path fill-rule="evenodd" clip-rule="evenodd" d="M49.994,25.464c-12.62,0.021-22.847,10.148-23.023,22.68    c-0.184,12.991,10.217,23.11,22.487,23.381c12.916,0.287,23.308-10.059,23.569-22.519C73.296,36.143,62.93,25.472,49.994,25.464z     M49.714,68.732c-11.01-0.149-20.061-9.208-19.945-20.454c0.116-11.095,9.212-20.024,20.251-20.007    c11.16,0.012,20.206,9.086,20.206,20.275C70.22,59.678,61.051,68.882,49.714,68.732z"/><path fill-rule="evenodd" clip-rule="evenodd" d="M49.779,43.147c-1-0.003-1.747,0.669-1.747,1.583c0,5.159,0,10.322,0.002,15.481    c0,0.947,0.696,1.587,1.719,1.591c1.052,0.003,1.747-0.636,1.747-1.608c0.002-2.575,0-5.146,0-7.721c0-2.584,0.002-5.171,0-7.758    C51.499,43.82,50.761,43.156,49.779,43.147z"/><path fill-rule="evenodd" clip-rule="evenodd" d="M49.898,36.47c-1.265-0.008-2.257,0.952-2.257,2.183    c0,1.264,0.958,2.239,2.203,2.239c1.249,0.004,2.249-0.979,2.251-2.207C52.095,37.475,51.105,36.475,49.898,36.47z"/></g></g><text x="0" y="115" fill="#000000" font-size="5px" font-weight="bold" font-family="'Helvetica Neue', Helvetica, Arial-Unicode, Arial, Sans-serif">Created by Nicole Macdonald</text><text x="0" y="120" fill="#000000" font-size="5px" font-weight="bold" font-family="'Helvetica Neue', Helvetica, Arial-Unicode, Arial, Sans-serif">from the Noun Project</text></svg>