<svg xmlns="http://www.w3.org/2000/svg" xmlns:xlink="http://www.w3.org/1999/xlink" version="1.1" x="0px" y="0px" viewBox="0 0 100 125" enable-background="new 0 0 100 100" xml:space="preserve"><path d="M76.16,50.858c-2.017-0.967-4.321-1.497-6.698-1.595c0.636-4.074,0.14-8.172-1.539-11.673  c-0.267-0.558-0.843-0.886-1.467-0.848c-2.883,0.221-5.724,1.181-8.313,2.724c-1.604-3.75-4.113-6.957-7.295-9.133  c-0.512-0.35-1.184-0.35-1.694,0c-3.184,2.179-5.694,5.389-7.299,9.141c-2.59-1.543-5.427-2.511-8.31-2.731  c-0.619-0.047-1.199,0.289-1.467,0.848c-1.678,3.501-2.16,7.598-1.523,11.671c-2.383,0.097-4.693,0.628-6.715,1.597  c-0.559,0.268-0.895,0.851-0.848,1.467c0.449,5.846,4.245,11.507,9.908,14.775c3.203,1.85,6.762,2.828,10.289,2.828h0.001  c2.399,0,4.73-0.487,6.81-1.372c2.08,0.885,4.41,1.372,6.811,1.372l0,0c3.527,0,7.086-0.979,10.289-2.828  c5.664-3.269,9.461-8.931,9.908-14.775C77.055,51.708,76.719,51.126,76.16,50.858z M65.639,39.854  c1.14,2.901,1.385,6.221,0.77,9.514c-2.171,0.26-4.32,0.881-6.359,1.841c0.049-0.646,0.084-1.295,0.084-1.95  c0-2.379-0.338-4.708-0.967-6.91C61.184,41.058,63.387,40.19,65.639,39.854z M50,33.433c4.424,3.485,7.133,9.443,7.133,15.825  c0,6.38-2.709,12.338-7.133,15.821c-4.423-3.484-7.132-9.442-7.132-15.821C42.868,42.877,45.577,36.919,50,33.433z M34.363,39.854  c2.251,0.338,4.452,1.211,6.47,2.503c-0.628,2.199-0.965,4.526-0.965,6.901c0,0.654,0.034,1.303,0.085,1.947  c-2.037-0.957-4.18-1.577-6.347-1.837C32.99,46.074,33.222,42.755,34.363,39.854z M43.189,66.929c-3.002,0-6.041-0.839-8.789-2.426  c-4.471-2.581-7.57-6.86-8.292-11.356c1.595-0.607,3.37-0.925,5.192-0.925c3.002,0,6.041,0.839,8.789,2.428  c0.146,0.084,0.279,0.18,0.42,0.269c1.043,4.525,3.314,8.586,6.48,11.523c-1.21,0.316-2.49,0.487-3.799,0.487H43.189z M65.6,64.503  c-2.748,1.587-5.787,2.426-8.789,2.426c-1.309,0-2.59-0.17-3.799-0.487c3.165-2.936,5.436-6.996,6.479-11.521  c0.143-0.088,0.274-0.188,0.42-0.272c2.748-1.587,5.787-2.426,8.789-2.426c1.822,0,3.598,0.317,5.192,0.925  C73.17,57.643,70.071,61.922,65.6,64.503z"/><text x="0" y="115" fill="#000000" font-size="5px" font-weight="bold" font-family="'Helvetica Neue', Helvetica, Arial-Unicode, Arial, Sans-serif">Created by Sergey Demushkin</text><text x="0" y="120" fill="#000000" font-size="5px" font-weight="bold" font-family="'Helvetica Neue', Helvetica, Arial-Unicode, Arial, Sans-serif">from the Noun Project</text></svg>