<svg xmlns="http://www.w3.org/2000/svg" xmlns:xlink="http://www.w3.org/1999/xlink" version="1.1" x="0px" y="0px" viewBox="0 0 100 125" enable-background="new 0 0 100 100" xml:space="preserve"><path fill="#000000" d="M10,59.5c1.1,0,2-0.9,2-2v-15c0-1.1-0.9-2-2-2s-2,0.9-2,2v15C8,58.6,8.9,59.5,10,59.5z"/><path fill="#000000" d="M18,35v30c0,1.1,0.9,2,2,2s2-0.9,2-2V35c0-1.1-0.9-2-2-2S18,33.9,18,35z"/><path fill="#000000" d="M27.5,23.8v52.5c0,1.1,0.9,2,2,2s2-0.9,2-2V23.8c0-1.1-0.9-2-2-2S27.5,22.6,27.5,23.8z"/><path fill="#000000" d="M39,35v30c0,1.1,0.9,2,2,2s2-0.9,2-2V35c0-1.1-0.9-2-2-2S39,33.9,39,35z"/><path fill="#000000" d="M48,42.5v15c0,1.1,0.9,2,2,2s2-0.9,2-2v-15c0-1.1-0.9-2-2-2S48,41.4,48,42.5z"/><path fill="#000000" d="M58.5,35v30c0,1.1,0.9,2,2,2s2-0.9,2-2V35c0-1.1-0.9-2-2-2S58.5,33.9,58.5,35z"/><path fill="#000000" d="M68.1,25v50c0,1.1,0.9,2,2,2s2-0.9,2-2V25c0-1.1-0.9-2-2-2S68.1,23.9,68.1,25z"/><path fill="#000000" d="M79.5,33c-1.1,0-2,0.9-2,2v30c0,1.1,0.9,2,2,2s2-0.9,2-2V35C81.5,33.9,80.6,33,79.5,33z"/><path fill="#000000" d="M90.5,40.5c-1.1,0-2,0.9-2,2v15c0,1.1,0.9,2,2,2s2-0.9,2-2v-15C92.5,41.4,91.6,40.5,90.5,40.5z"/><text x="0" y="115" fill="#000000" font-size="5px" font-weight="bold" font-family="'Helvetica Neue', Helvetica, Arial-Unicode, Arial, Sans-serif">Created by André Luiz Gollo</text><text x="0" y="120" fill="#000000" font-size="5px" font-weight="bold" font-family="'Helvetica Neue', Helvetica, Arial-Unicode, Arial, Sans-serif">from the Noun Project</text></svg>