<?xml version="1.0" standalone="no"?>
<!DOCTYPE svg PUBLIC "-//W3C//DTD SVG 1.1//EN" "http://www.w3.org/Graphics/SVG/1.1/DTD/svg11.dtd" >
<svg xmlns="http://www.w3.org/2000/svg">
<metadata></metadata>
<defs>
<font id="avenirnext_lt_pro_regularRg" horiz-adv-x="1187" >
<font-face units-per-em="2048" ascent="1548" descent="-500" />
<missing-glyph horiz-adv-x="512" />
<glyph unicode="&#xfb01;" horiz-adv-x="1114" d="M25 842v116h200v263q0 166 82.5 259t243.5 93q66 0 115 -14l-25 -123q-51 14 -96 14q-54 0 -91 -18t-55.5 -53.5t-26 -76.5t-7.5 -98v-246h225v-116h-225v-842h-140v842h-200zM760 1327q0 41 30 69.5t68 28.5t68 -28.5t30 -69.5t-30 -69.5t-68 -28.5t-68 28.5t-30 69.5z M786 0v958h140v-958h-140z" />
<glyph unicode="&#xfb02;" horiz-adv-x="1114" d="M25 842v116h200v263q0 166 82.5 259t243.5 93q66 0 115 -14l-25 -123q-51 14 -96 14q-54 0 -91 -18t-55.5 -53.5t-26 -76.5t-7.5 -98v-246h225v-116h-225v-842h-140v842h-200zM786 0v1548h140v-1548h-140z" />
<glyph horiz-adv-x="1024" />
<glyph horiz-adv-x="1024" />
<glyph horiz-adv-x="682" />
<glyph unicode="&#xd;" horiz-adv-x="0" />
<glyph unicode=" "  horiz-adv-x="512" />
<glyph unicode="&#x09;" horiz-adv-x="512" />
<glyph unicode="&#xa0;" horiz-adv-x="512" />
<glyph unicode="!" horiz-adv-x="671" d="M225 98q0 44 31.5 77.5t79.5 33.5t79 -33.5t31 -77.5t-31 -77t-79 -33t-79.5 33t-31.5 77zM262 393v1057h148v-1057h-148z" />
<glyph unicode="&#x22;" horiz-adv-x="829" d="M205 969v481h123v-481h-123zM502 969v481h123v-481h-123z" />
<glyph unicode="#" horiz-adv-x="1138" d="M72 438v123h225l45 332h-221v123h239l60 434h125l-60 -434h273l59 434h125l-59 -434h184v-123h-203l-45 -332h195v-123h-211l-62 -438h-125l62 438h-272l-62 -438h-125l62 438h-209zM422 561h272l45 332h-272z" />
<glyph unicode="$" d="M106 193l117 81q51 -84 145.5 -131t170.5 -49v588q-64 20 -113.5 40t-105 54.5t-92.5 75t-61 101t-24 132.5q0 172 114.5 277t281.5 113v147h98v-147q105 -3 209.5 -45.5t169.5 -120.5l-113 -86q-46 65 -117.5 100t-148.5 37v-563q72 -25 124 -47.5t111 -60t95.5 -80.5 t61 -106.5t24.5 -140.5q0 -168 -118.5 -276t-297.5 -111v-147h-98v147q-133 3 -244.5 61.5t-188.5 156.5zM285 1098q0 -198 254 -267v529q-108 -3 -181 -76t-73 -186zM637 94q48 2 93 17.5t85.5 46.5t65 86.5t24.5 128.5q0 100 -72.5 172.5t-195.5 111.5v-563z" />
<glyph unicode="%" horiz-adv-x="1705" d="M78 1116q0 151 104 255t256 104t256.5 -104t104.5 -255t-104.5 -254.5t-256.5 -103.5t-256 103.5t-104 254.5zM201 1116q0 -100 69.5 -167.5t167.5 -67.5t168 67.5t70 167.5t-70 168t-168 68t-167.5 -68t-69.5 -168zM338 -8l924 1521l104 -55l-922 -1521zM907 334 q0 151 104.5 254.5t256.5 103.5t256 -103.5t104 -254.5t-104 -255t-256 -104t-256.5 104t-104.5 255zM1030 334q0 -100 70 -168t168 -68t167.5 68t69.5 168t-69.5 167.5t-167.5 67.5t-168 -67.5t-70 -167.5z" />
<glyph unicode="&#x26;" horiz-adv-x="1441" d="M100 377q0 154 89.5 257.5t246.5 172.5q-176 180 -176 338t103 250t258 92q150 0 250 -87.5t100 -238.5q0 -55 -19 -105t-48.5 -88t-74.5 -74t-87.5 -61.5t-96.5 -52.5l338 -348l201 352h166l-267 -448l326 -336h-205l-205 215q-91 -125 -195.5 -182.5t-250.5 -57.5 q-194 0 -323.5 107t-129.5 295zM252 375q0 -121 88 -199t215 -78q115 0 194.5 51.5t151.5 161.5l-383 402q-134 -60 -200 -141.5t-66 -196.5zM403 1143q0 -70 53 -151t105 -124q44 20 78 39t71 46.5t61 56.5t40 68.5t16 82.5q0 89 -58 147t-146 58q-96 0 -158 -61.5 t-62 -161.5z" />
<glyph unicode="'" horiz-adv-x="532" d="M205 969v481h123v-481h-123z" />
<glyph unicode="(" horiz-adv-x="614" d="M66 590q0 -255 82 -496.5t217 -419.5l106 68q-122 171 -196 394.5t-74 453.5t74 453.5t196 394.5l-106 67q-135 -178 -217 -419t-82 -496z" />
<glyph unicode=")" horiz-adv-x="614" d="M143 -258q122 172 196.5 395.5t74.5 452.5t-74.5 452.5t-196.5 395.5l107 67q135 -178 217 -419t82 -496t-82 -496.5t-217 -419.5z" />
<glyph unicode="*" horiz-adv-x="909" d="M63 1135l43 114l287 -92v293h123v-293l287 92l43 -114l-289 -93l184 -247l-98 -74l-188 254l-189 -254l-98 74l184 247z" />
<glyph unicode="+" horiz-adv-x="1363" d="M160 559v123h461v461h122v-461h461v-123h-461v-461h-122v461h-461z" />
<glyph unicode="," horiz-adv-x="532" d="M92 -287l137 482h146l-166 -482h-117z" />
<glyph unicode="-" horiz-adv-x="655" d="M98 438v117h459v-117h-459z" />
<glyph unicode="." horiz-adv-x="532" d="M156 98q0 44 31 77.5t79 33.5t79.5 -33.5t31.5 -77.5t-31.5 -77t-79.5 -33t-79 33t-31 77z" />
<glyph unicode="/" horiz-adv-x="757" d="M10 2l621 1485l117 -41l-619 -1483z" />
<glyph unicode="0" d="M119 723q0 119 14 225t48.5 206.5t87 172.5t136 116t189.5 44q104 0 187 -43.5t136 -116t88 -173t49.5 -207t14.5 -224.5t-14.5 -224t-49.5 -206t-88 -171.5t-136 -115t-187 -43.5q-106 0 -189 43.5t-136 115t-87.5 171.5t-48.5 205.5t-14 224.5zM268 723q0 -93 9 -177.5 t32 -169.5t58.5 -147t94 -100.5t132.5 -38.5q73 0 131 38.5t94 100.5t59.5 147t32.5 170t9 177t-9 178t-32.5 171.5t-59.5 148.5t-94 102t-131 39q-62 0 -113.5 -27t-86 -75t-60 -108.5t-39.5 -134.5t-20.5 -146t-6.5 -148z" />
<glyph unicode="1" d="M233 1147l369 303h131v-1450h-147v1268l-262 -224z" />
<glyph unicode="2" d="M104 0v154l594 600q80 82 127 161.5t47 169.5q0 123 -83 200t-203 77q-115 0 -195 -71.5t-104 -186.5l-146 29q31 155 154 254.5t291 99.5q119 0 216.5 -44t158.5 -136.5t61 -219.5q0 -67 -17.5 -127t-54 -116t-72.5 -97.5t-92 -97.5l-522 -518h768v-131h-928z" />
<glyph unicode="3" d="M100 260l140 51q37 -102 122.5 -161.5t196.5 -59.5q84 0 156.5 36.5t118 108.5t45.5 166q0 79 -31.5 138t-86.5 92t-119.5 49t-139.5 16h-64v127h64q97 0 170.5 25.5t120.5 87t47 154.5q0 119 -83.5 195.5t-203.5 76.5q-91 0 -162.5 -43.5t-114.5 -126.5l-124 65 q133 230 409 230q116 0 210.5 -43.5t154 -133.5t59.5 -212q0 -124 -70.5 -213t-181.5 -119v-4q129 -27 211 -123t82 -238q0 -134 -64.5 -235t-170 -152t-232.5 -51q-158 0 -278 77.5t-181 219.5z" />
<glyph unicode="4" d="M86 350v144l614 956h193v-971h213v-129h-213v-350h-143v350h-664zM240 479h510v805h-5z" />
<glyph unicode="5" d="M115 227l133 60q38 -89 118 -143t175 -54q147 0 243.5 98t96.5 246q0 159 -101.5 253.5t-259.5 94.5q-151 0 -301 -80l14 748h740v-131h-604l-11 -449q88 33 201 33q205 0 338 -126.5t133 -327.5q0 -212 -133.5 -349t-347.5 -137q-152 0 -262 70t-172 194z" />
<glyph unicode="6" d="M123 420q0 180 131 393l395 637h170l-407 -633l4 -4q31 24 90 38.5t117 14.5q191 0 316.5 -125t125.5 -321q0 -201 -133 -329t-338 -128t-338 128t-133 329zM270 420q0 -142 91.5 -237t232.5 -95t232.5 95t91.5 237t-88.5 235t-235.5 93t-235.5 -93t-88.5 -235z" />
<glyph unicode="7" d="M160 1319v131h860v-135l-584 -1315h-166l600 1319h-710z" />
<glyph unicode="8" d="M129 381q0 143 76 247t198 140v4q-97 32 -158 123.5t-61 204.5q0 172 119.5 279.5t290.5 107.5t290.5 -107.5t119.5 -279.5q0 -112 -61.5 -204t-158.5 -124v-4q121 -35 198 -139.5t77 -247.5q0 -93 -38 -172t-101.5 -132.5t-148 -83.5t-177.5 -30t-177.5 30t-148 83.5 t-101.5 132.5t-38 172zM276 397q0 -134 88.5 -221.5t229.5 -87.5t229 87.5t88 221.5q0 132 -88 217.5t-229 85.5t-229.5 -85.5t-88.5 -217.5zM328 1092q0 -113 77 -187t189 -74t189 74t77 187q0 117 -76 193.5t-190 76.5t-190 -76.5t-76 -193.5z" />
<glyph unicode="9" d="M127 1030q0 201 133 329t338 128t338 -128t133 -329q0 -180 -131 -393l-395 -637h-170l407 633l-4 4q-31 -24 -90 -38.5t-117 -14.5q-191 0 -316.5 125t-125.5 321zM274 1030q0 -142 88.5 -235t235.5 -93t235.5 93t88.5 235t-91.5 237t-232.5 95t-232.5 -95t-91.5 -237z " />
<glyph unicode=":" horiz-adv-x="614" d="M197 98q0 44 31 77.5t79 33.5t79.5 -33.5t31.5 -77.5t-31.5 -77t-79.5 -33t-79 33t-31 77zM197 860q0 44 31 77.5t79 33.5t79.5 -33.5t31.5 -77.5t-31.5 -77t-79.5 -33t-79 33t-31 77z" />
<glyph unicode=";" horiz-adv-x="614" d="M119 -287l137 482h152l-166 -482h-123zM197 860q0 44 31 77.5t79 33.5t79.5 -33.5t31.5 -77.5t-31.5 -77t-79.5 -33t-79 33t-31 77z" />
<glyph unicode="&#x3c;" horiz-adv-x="1363" d="M160 573v95l1044 487v-123l-878 -411l878 -412v-123z" />
<glyph unicode="=" horiz-adv-x="1363" d="M160 406v122h1044v-122h-1044zM160 713v123h1044v-123h-1044z" />
<glyph unicode="&#x3e;" horiz-adv-x="1363" d="M160 86v123l878 412l-878 411v123l1044 -487v-95z" />
<glyph unicode="?" horiz-adv-x="987" d="M98 1133q31 158 141.5 250t268.5 92q171 0 284 -96.5t113 -264.5q0 -63 -13 -113t-43.5 -91.5t-57 -67.5t-74.5 -66q-49 -40 -74 -64.5t-46 -58t-28.5 -72t-7.5 -94.5v-94h-143v123q0 56 12.5 102.5t39 85t50.5 64t62 59.5l57 52q119 96 119 227q0 112 -73 177t-183 65 q-107 0 -178 -66.5t-86 -173.5zM393 98q0 44 31.5 77.5t79.5 33.5t79 -33.5t31 -77.5t-31 -77t-79 -33t-79.5 33t-31.5 77z" />
<glyph unicode="@" horiz-adv-x="1638" d="M72 723q0 160 62 302.5t167 243.5t249 159.5t304 58.5q113 0 218.5 -25.5t198 -79.5t161 -130.5t108 -185.5t39.5 -237q0 -120 -32 -217t-87.5 -158t-126.5 -93.5t-151 -32.5q-86 0 -132 43t-46 106h-9q-25 -53 -95 -101t-161 -48q-136 0 -216.5 94t-80.5 244 q0 117 48.5 220.5t143.5 170.5t216 67q75 0 132.5 -35t80.5 -88h8l21 93h127l-82 -381q-23 -106 -23 -164q0 -103 100 -103t164 106t64 263q0 173 -76.5 297.5t-208.5 186t-305 61.5q-138 0 -255.5 -49.5t-199 -135t-127 -204t-45.5 -254.5q0 -288 177.5 -459.5 t465.5 -171.5q332 0 553 215l76 -94q-238 -244 -643 -244q-231 0 -409.5 97t-275.5 270t-97 393zM592 657q0 -33 7.5 -66.5t24 -67.5t51 -55.5t81.5 -21.5q67 0 119 34.5t81 88t43.5 111t14.5 111.5q0 42 -8 77t-26.5 66.5t-53 49t-82.5 17.5q-77 0 -136.5 -53.5 t-87.5 -130.5t-28 -160z" />
<glyph unicode="A" horiz-adv-x="1433" d="M20 0l627 1450h144l622 -1450h-164l-159 381h-750l-158 -381h-162zM395 516h639l-319 770z" />
<glyph unicode="B" horiz-adv-x="1302" d="M193 0v1450h432q70 0 133.5 -10.5t126 -37t107.5 -67t72.5 -106.5t27.5 -150q0 -114 -70.5 -199.5t-185.5 -111.5v-4q145 -15 236 -112t91 -251q0 -183 -145.5 -292t-394.5 -109h-430zM340 127h274q83 0 153 16t126.5 49t88.5 88.5t32 129.5q0 141 -96.5 212.5 t-276.5 71.5h-301v-567zM340 815h297q57 0 108.5 13t97.5 41t73.5 79.5t27.5 120.5q0 88 -48.5 147t-124 83t-175.5 24h-256v-508z" />
<glyph unicode="C" horiz-adv-x="1474" d="M115 725q0 162 57.5 304t157.5 242.5t240 158t300 57.5t300.5 -62.5t215.5 -167.5l-122 -90q-50 78 -156.5 134.5t-235.5 56.5q-182 0 -321 -88.5t-210 -231t-71 -313.5q0 -127 42 -241.5t118.5 -201.5t191 -138.5t250.5 -51.5q130 0 242 53.5t184 161.5l115 -74 q-78 -118 -218.5 -194t-324.5 -76q-216 0 -388.5 98t-269.5 272.5t-97 391.5z" />
<glyph unicode="D" horiz-adv-x="1550" d="M193 0v1450h481q110 0 218 -28.5t206.5 -88.5t173.5 -144t119.5 -204t44.5 -260t-44.5 -260t-119.5 -204t-173.5 -144t-206.5 -88.5t-218 -28.5h-481zM340 131h293q158 0 284 50.5t204 135t118.5 189t40.5 219.5t-40.5 219.5t-118.5 189t-204 135t-284 50.5h-293v-1188z " />
<glyph unicode="E" horiz-adv-x="1212" d="M193 0v1450h899v-131h-752v-500h702v-129h-702v-559h776v-131h-923z" />
<glyph unicode="F" horiz-adv-x="1150" d="M193 0v1450h874v-131h-727v-504h676v-129h-676v-686h-147z" />
<glyph unicode="G" horiz-adv-x="1595" d="M115 725q0 162 57.5 304t157.5 242.5t240 158t300 57.5q327 0 525 -195l-103 -102q-158 168 -420 168q-136 0 -250.5 -51.5t-191 -138.5t-118.5 -201.5t-42 -241.5t42 -241.5t118.5 -201t191 -137.5t250.5 -51q120 0 223.5 25.5t168.5 68.5v441h-338v129h485v-654 q-237 -141 -541 -141q-216 0 -388.5 98t-269.5 272.5t-97 391.5z" />
<glyph unicode="H" horiz-adv-x="1470" d="M193 0v1450h147v-629h790v629h148v-1450h-148v686h-790v-686h-147z" />
<glyph unicode="I" horiz-adv-x="532" d="M193 0v1450h147v-1450h-147z" />
<glyph unicode="J" horiz-adv-x="1007" d="M51 258l137 37q18 -89 80.5 -146t155.5 -57q256 0 256 336v1022h147v-1032q0 -62 -9.5 -120t-36 -121t-68 -108.5t-112 -75.5t-161.5 -30q-154 0 -258 81.5t-131 213.5z" />
<glyph unicode="K" horiz-adv-x="1286" d="M193 0v1450h147v-651h2l690 651h211l-731 -657l772 -793h-217l-725 772h-2v-772h-147z" />
<glyph unicode="L" horiz-adv-x="1044" d="M193 0v1450h147v-1319h676v-131h-823z" />
<glyph unicode="M" horiz-adv-x="1814" d="M193 0v1450h225l491 -1200h2l486 1200h225v-1450h-147v1260h-5l-524 -1260h-78l-524 1260h-4v-1260h-147z" />
<glyph unicode="N" horiz-adv-x="1564" d="M193 0v1450h184l844 -1235h4v1235h147v-1450h-184l-844 1247h-4v-1247h-147z" />
<glyph unicode="O" horiz-adv-x="1740" d="M115 725q0 162 57.5 304t157.5 242.5t240 158t300 57.5q213 0 386 -98t271.5 -272.5t98.5 -391.5t-98.5 -391.5t-271.5 -272.5t-386 -98q-160 0 -300 57.5t-240 158t-157.5 242.5t-57.5 304zM270 725q0 -127 42 -241.5t117.5 -201t190 -137.5t250.5 -51t250.5 51 t190 137.5t117.5 201t42 241.5q0 171 -71 313.5t-209.5 231t-319.5 88.5t-319.5 -88.5t-209.5 -231t-71 -313.5z" />
<glyph unicode="P" d="M193 0v1450h409q228 0 359 -98.5t131 -288.5t-133 -289.5t-361 -99.5h-258v-674h-147zM340 799h250q172 0 263 67.5t91 196.5q0 131 -91.5 195.5t-262.5 64.5h-250v-524z" />
<glyph unicode="Q" horiz-adv-x="1726" d="M115 743q0 159 56 297.5t153 236.5t233 154t291 56t290.5 -56t232 -154t152.5 -236.5t56 -297.5q0 -194 -87 -353.5t-253 -254.5v-4h438v-131h-829q-207 0 -375 95.5t-263 265.5t-95 382zM270 743q0 -123 40.5 -233.5t113 -195.5t183 -135t241.5 -50q130 0 240 50 t183.5 134.5t114.5 196t41 233.5t-41 233.5t-114.5 196.5t-183.5 135t-240 50q-131 0 -241.5 -50t-183 -135t-113 -196t-40.5 -234z" />
<glyph unicode="R" horiz-adv-x="1226" d="M193 0v1450h425q111 0 199 -21t156 -66t104.5 -121t36.5 -179q0 -157 -103.5 -256t-267.5 -117l424 -690h-180l-401 678h-246v-678h-147zM340 805h256q179 0 275 65t96 193q0 260 -365 260h-262v-518z" />
<glyph unicode="S" horiz-adv-x="1155" d="M102 178l127 94q50 -81 136.5 -131.5t195.5 -50.5q78 0 150 30.5t122 96.5t50 154q0 72 -24.5 123t-87 88t-102.5 52.5t-136 45.5q-3 1 -5 2q-47 14 -83 27t-78.5 33t-73.5 41.5t-61.5 52.5t-49.5 66.5t-31 82.5t-12 102q0 81 28 149t73.5 113.5t106.5 77t125 46 t130 14.5q138 0 245.5 -50t164.5 -126l-117 -94q-101 145 -299 145q-55 0 -108.5 -17t-99 -49t-73.5 -85.5t-28 -120.5q0 -30 6 -56.5t14 -47t26 -40.5t31 -33t40.5 -28t43 -23t50 -21t50.5 -18.5t54 -17.5q161 -54 223 -86q156 -81 193 -225q14 -52 14 -113 q0 -84 -27.5 -154.5t-73 -118.5t-107 -81.5t-128.5 -48.5t-137 -15q-136 0 -258.5 55.5t-198.5 159.5z" />
<glyph unicode="T" horiz-adv-x="1167" d="M25 1319v131h1118v-131h-486v-1319h-147v1319h-485z" />
<glyph unicode="U" horiz-adv-x="1454" d="M184 541v909h148v-893q0 -73 12.5 -138t42 -125.5t74 -104t112.5 -69.5t154 -26t154 26t112.5 69.5t74 104t42 125.5t12.5 138v893h148v-909q0 -79 -14 -154t-52.5 -153.5t-97.5 -137t-156.5 -96t-222.5 -37.5t-222.5 37.5t-156.5 96t-97.5 137t-52.5 153.5t-14 154z" />
<glyph unicode="V" horiz-adv-x="1275" d="M6 1450h160l471 -1260h4l471 1260h158l-555 -1450h-156z" />
<glyph unicode="W" horiz-adv-x="1990" d="M29 1450h155l359 -1247h4l362 1247h176l363 -1247h4l354 1247h156l-428 -1450h-172l-365 1245h-4l-364 -1245h-172z" />
<glyph unicode="X" horiz-adv-x="1329" d="M39 0l532 762l-485 688h184l398 -586l395 586h176l-481 -690l532 -760h-184l-442 653l-441 -653h-184z" />
<glyph unicode="Y" horiz-adv-x="1232" d="M0 1450h184l437 -702l440 702h172l-543 -825v-625h-147v625z" />
<glyph unicode="Z" horiz-adv-x="1171" d="M63 0v123l848 1196h-825v131h1010v-123l-846 -1196h858v-131h-1045z" />
<glyph unicode="[" horiz-adv-x="614" d="M119 -319v1818h332v-110h-197v-1598h197v-110h-332z" />
<glyph unicode="\" horiz-adv-x="757" d="M10 1446l117 41l621 -1485l-119 -39z" />
<glyph unicode="]" horiz-adv-x="614" d="M164 -209h196v1598h-196v110h332v-1818h-332v110z" />
<glyph unicode="^" horiz-adv-x="1363" d="M164 563l469 887h98l469 -887h-127l-391 740l-391 -740h-127z" />
<glyph unicode="_" horiz-adv-x="1024" d="M0 -154h1024v-102h-1024v102z" />
<glyph unicode="`" horiz-adv-x="491" d="M-20 1450h186l205 -295h-121z" />
<glyph unicode="a" horiz-adv-x="1093" d="M113 266q0 62 20 111t52 82t84 57.5t105.5 38t127.5 21t137.5 10t148.5 2.5v30q0 124 -65 186t-191 62q-83 0 -157.5 -30t-126.5 -82l-78 92q61 61 160 99t217 38q163 0 268 -90t105 -258v-420q0 -130 16 -215h-125q-14 82 -14 156h-4q-66 -95 -149.5 -138t-199.5 -43 q-58 0 -113.5 16t-105.5 49t-81 91.5t-31 134.5zM256 272q0 -65 34.5 -107.5t83 -58.5t107.5 -16q142 0 224.5 92t82.5 226v71h-40q-63 0 -116 -3t-112 -10t-104 -22t-82.5 -37t-57.5 -56.5t-20 -78.5z" />
<glyph unicode="b" horiz-adv-x="1304" d="M188 0v1548h140v-755h4q60 91 158 140.5t204 49.5q146 0 260 -67t175 -181.5t61 -255.5t-61 -255.5t-175 -181.5t-260 -67q-106 0 -204 49t-158 138h-4v-162h-140zM311 479q0 -165 104.5 -275t264.5 -110q168 0 265 109.5t97 275.5t-97 276.5t-265 110.5 q-160 0 -264.5 -111t-104.5 -276z" />
<glyph unicode="c" horiz-adv-x="1024" d="M115 479q0 219 141.5 361.5t370.5 142.5q102 0 199.5 -43t156.5 -123l-109 -78q-34 56 -101 91.5t-144 35.5q-165 0 -266 -110t-101 -277q0 -166 100.5 -275.5t264.5 -109.5q167 0 260 125l104 -78q-136 -166 -364 -166q-229 0 -370.5 142.5t-141.5 361.5z" />
<glyph unicode="d" horiz-adv-x="1304" d="M115 479q0 141 60.5 255.5t174.5 181.5t260 67q106 0 204.5 -49.5t158.5 -140.5h4v755h139v-1548h-139v162h-4q-60 -89 -158.5 -138t-204.5 -49q-146 0 -260 67t-174.5 181.5t-60.5 255.5zM262 479q0 -166 97.5 -275.5t265.5 -109.5q160 0 264 110t104 275 q0 166 -104 276.5t-264 110.5q-168 0 -265.5 -110.5t-97.5 -276.5z" />
<glyph unicode="e" horiz-adv-x="1171" d="M115 479q0 216 139 360t344 144q146 0 251.5 -65t156.5 -171t51 -239q0 -41 -2 -66h-795q3 -146 103 -247t247 -101q101 0 183 48t125 118l104 -82q-160 -203 -412 -203q-214 0 -354.5 143.5t-140.5 360.5zM262 553h653q-6 140 -89 226.5t-228 86.5q-136 0 -231.5 -93 t-104.5 -220z" />
<glyph unicode="f" horiz-adv-x="604" d="M25 842v116h200v263q0 166 82.5 259t243.5 93q66 0 115 -14l-25 -123q-51 14 -96 14q-54 0 -91 -18t-55.5 -53.5t-26 -76.5t-7.5 -98v-246h225v-116h-225v-842h-140v842h-200z" />
<glyph unicode="g" horiz-adv-x="1294" d="M115 487q0 136 60.5 248.5t174.5 180t260 67.5q108 0 208 -50t155 -140h4v165h139v-950q0 -69 -13 -133t-48.5 -132.5t-91.5 -119t-150.5 -83t-216.5 -32.5q-131 0 -253.5 51.5t-207.5 141.5l101 106q59 -76 159.5 -126t206.5 -50q100 0 174 29.5t117 82t63.5 118.5 t20.5 147v180h-4q-54 -87 -155 -137.5t-208 -50.5q-222 0 -358.5 137t-136.5 350zM262 492q0 -157 98 -265t265 -108q162 0 265 104t103 269q0 154 -105 264t-263 110q-167 0 -265 -108t-98 -266z" />
<glyph unicode="h" horiz-adv-x="1193" d="M188 0v1548h140v-747h4q38 82 128 132t193 50q179 0 272 -106t93 -289v-588h-139v530q0 162 -59 249t-202 87q-120 0 -205 -96.5t-85 -277.5v-492h-140z" />
<glyph unicode="i" horiz-adv-x="512" d="M158 1327q0 41 30 69.5t68 28.5t68 -28.5t30 -69.5t-30 -69.5t-68 -28.5t-68 28.5t-30 69.5zM186 0v958h140v-958h-140z" />
<glyph unicode="j" horiz-adv-x="514" d="M-55 -477l20 117q44 -13 88 -13q81 0 108 51t27 154v1126h140v-1148q0 -62 -12.5 -113t-42 -95t-85 -69t-133.5 -25q-57 0 -110 15zM160 1327q0 41 30 69.5t68 28.5t68 -28.5t30 -69.5t-30 -69.5t-68 -28.5t-68 28.5t-30 69.5z" />
<glyph unicode="k" horiz-adv-x="1044" d="M188 0v1548h140v-1022h6l442 432h201l-483 -438l532 -520h-205l-487 504h-6v-504h-140z" />
<glyph unicode="l" horiz-adv-x="516" d="M188 0v1548h140v-1548h-140z" />
<glyph unicode="m" horiz-adv-x="1808" d="M176 958h133q8 -102 8 -163h5q42 84 127.5 136t187.5 52q217 0 295 -203q50 99 135.5 151t200.5 52q179 0 271.5 -105.5t92.5 -289.5v-588h-139v530q0 336 -248 336q-72 0 -126.5 -30t-85.5 -82t-45.5 -113t-14.5 -131v-510h-139v559q0 152 -50.5 229.5t-181.5 77.5 q-51 0 -99.5 -23t-89 -67.5t-65 -118t-24.5 -165.5v-492h-140v748q0 122 -8 210z" />
<glyph unicode="n" horiz-adv-x="1189" d="M176 958h133q8 -102 8 -163h5q39 83 132 135.5t195 52.5q179 0 272 -106t93 -289v-588h-140v530q0 79 -12.5 138t-41.5 105t-80.5 69.5t-125.5 23.5q-120 0 -205 -96.5t-85 -277.5v-492h-140v748q0 122 -8 210z" />
<glyph unicode="o" horiz-adv-x="1251" d="M115 479q0 218 144 361t366 143q223 0 367.5 -143t144.5 -361t-144.5 -361t-367.5 -143q-222 0 -366 143t-144 361zM262 479q0 -165 100 -275t263 -110q164 0 264 110t100 275t-100 276t-264 111q-162 0 -262.5 -111t-100.5 -276z" />
<glyph unicode="p" horiz-adv-x="1300" d="M184 -492v1450h140v-165h6q58 91 156 140.5t204 49.5q146 0 260 -67t175 -181.5t61 -255.5t-61 -255.5t-175 -181.5t-260 -67q-105 0 -203 49.5t-157 137.5h-6v-654h-140zM307 479q0 -165 104.5 -275t264.5 -110q168 0 265 109.5t97 275.5t-97 276.5t-265 110.5 q-160 0 -264.5 -111t-104.5 -276z" />
<glyph unicode="q" horiz-adv-x="1300" d="M115 479q0 141 60.5 255.5t174.5 181.5t260 67q107 0 205 -49.5t156 -140.5h6v165h139v-1450h-139v654h-6q-59 -87 -157.5 -137t-203.5 -50q-146 0 -260 67t-174.5 181.5t-60.5 255.5zM262 479q0 -166 97.5 -275.5t265.5 -109.5q160 0 264 110t104 275q0 166 -104 276.5 t-264 110.5q-168 0 -265.5 -110.5t-97.5 -276.5z" />
<glyph unicode="r" horiz-adv-x="737" d="M176 958h133q8 -102 8 -163h5q40 84 123.5 136t183.5 52q56 0 92 -10l-19 -131q-32 12 -98 12q-120 0 -200 -90.5t-80 -271.5v-492h-140v748q0 122 -8 210z" />
<glyph unicode="s" horiz-adv-x="909" d="M78 162l110 82q38 -65 111 -107.5t156 -42.5q99 0 162 40t63 128q0 70 -67 109.5t-216 74.5q-42 10 -73 20t-71.5 30.5t-66.5 46.5t-44.5 68t-18.5 94q0 70 28.5 125t77.5 87.5t109 49t127 16.5q103 0 197.5 -46.5t138.5 -125.5l-107 -80q-31 61 -94 98t-141 37 q-84 0 -143.5 -37.5t-59.5 -111.5q0 -66 53.5 -102t175.5 -62q171 -36 251.5 -103t80.5 -178q0 -64 -20.5 -115t-55 -84.5t-81.5 -56t-97.5 -32t-105.5 -9.5q-114 0 -215 47t-164 140z" />
<glyph unicode="t" horiz-adv-x="649" d="M8 842v116h199v271h139v-271h270v-116h-270v-559q0 -100 36.5 -138.5t106.5 -38.5q57 0 121 31l6 -121q-76 -28 -163 -28q-43 0 -82 11t-78 37t-62.5 79.5t-23.5 128.5v598h-199z" />
<glyph unicode="u" horiz-adv-x="1189" d="M176 371v587h139v-530q0 -79 12.5 -138t41.5 -105t80.5 -69.5t125.5 -23.5q120 0 205.5 97t85.5 278v491h140v-747q0 -123 8 -211h-133q-9 115 -9 164h-4q-39 -83 -132 -136t-195 -53q-179 0 -272 106t-93 290z" />
<glyph unicode="v" horiz-adv-x="999" d="M33 958h155l312 -811h4l313 811h150l-389 -958h-154z" />
<glyph unicode="w" horiz-adv-x="1527" d="M53 958h150l231 -778h4l258 778h135l263 -778h4l229 778h148l-304 -958h-151l-256 776h-4l-252 -776h-152z" />
<glyph unicode="x" horiz-adv-x="991" d="M33 0l377 496l-355 462h178l263 -364l262 364h168l-348 -456l380 -502h-180l-284 399l-293 -399h-168z" />
<glyph unicode="y" horiz-adv-x="999" d="M33 958h155l326 -808h4l297 808h152l-478 -1206q-47 -121 -115.5 -182.5t-185.5 -61.5q-58 0 -125 13l15 127q53 -17 102 -17q67 0 109.5 42t75.5 128l77 201z" />
<glyph unicode="z" horiz-adv-x="905" d="M63 0v98l572 744h-543v116h729v-98l-573 -739h594v-121h-779z" />
<glyph unicode="{" horiz-adv-x="614" d="M0 528v123q79 0 120.5 60t41.5 168v364q0 135 61.5 195.5t159.5 60.5h129v-110h-98q-117 0 -117 -170v-365q0 -56 -14.5 -102.5t-35.5 -74t-47.5 -47.5t-47 -28t-37.5 -10v-4q17 -2 37.5 -10t47 -28t47.5 -47.5t35.5 -74t14.5 -102.5v-365q0 -170 117 -170h98v-110h-129 q-98 0 -159.5 60.5t-61.5 195.5v364q0 108 -41.5 167.5t-120.5 59.5z" />
<glyph unicode="|" horiz-adv-x="454" d="M166 -512v2048h123v-2048h-123z" />
<glyph unicode="}" horiz-adv-x="614" d="M102 -209v-110h129q98 0 160 60.5t62 195.5v364q0 108 41 167.5t120 59.5v123q-79 0 -120 59.5t-41 168.5v364q0 135 -62 195.5t-160 60.5h-129v-110h99q116 0 116 -170v-365q0 -56 14.5 -102.5t36 -74t48 -47.5t47 -28t37.5 -10v-4q-17 -2 -37.5 -10t-47 -28t-48 -47.5 t-36 -74t-14.5 -102.5v-365q0 -170 -116 -170h-99z" />
<glyph unicode="~" horiz-adv-x="1363" d="M182 569q28 39 52 67t59.5 59.5t78 48t89.5 16.5q115 0 225 -72q132 -84 211 -84q108 0 199 150l86 -82q-122 -191 -279 -191q-61 0 -109.5 15t-117.5 59q-70 44 -115.5 63t-95.5 19q-115 0 -197 -150z" />
<glyph unicode="&#xa1;" horiz-adv-x="671" d="M225 883q0 -44 31.5 -77.5t79.5 -33.5t79 33.5t31 77.5t-31 77t-79 33t-79.5 -33t-31.5 -77zM262 -469h148v1057h-148v-1057z" />
<glyph unicode="&#xa2;" d="M180 479q0 201 116 339t314 159v129h99v-125q198 -10 329 -164l-110 -84q-32 52 -90 86.5t-129 38.5v-758q71 4 129 38.5t90 86.5l110 -84q-131 -154 -329 -164v-124h-99v129q-198 21 -314 158.5t-116 338.5zM328 479q0 -147 76 -249.5t206 -125.5v750 q-130 -23 -206 -125.5t-76 -249.5z" />
<glyph unicode="&#xa3;" d="M154 0v123h208v563h-196v123h196v190q0 74 13 141.5t45 132t80.5 111t124.5 75t172 28.5q200 0 317 -123l-96 -104q-89 102 -227 102q-70 0 -122.5 -26.5t-82 -65t-47.5 -92t-23.5 -98.5t-5.5 -93v-178h344v-123h-344v-563h537v-123h-893z" />
<glyph unicode="&#xa4;" horiz-adv-x="1761" d="M272 106l197 197q-109 131 -109 330q0 187 103 321q-63 61 -191 189q31 29 90 88q27 -28 59 -60t71 -70.5t59 -58.5q142 113 332 113q191 0 327 -111q28 27 59.5 58.5t69.5 70t58 58.5q31 -29 90 -88l-184 -185q104 -136 104 -325q0 -198 -113 -336q32 -31 97 -95t96 -96 q-14 -14 -43 -44t-45 -46l-195 195q-137 -105 -321 -105q-185 0 -324 109q-22 -22 -62.5 -62t-74 -73.5t-62.5 -63.5q-58 61 -88 90zM510 633q0 -164 103 -275.5t270 -111.5q166 0 269 111.5t103 275.5q0 162 -103 272.5t-269 110.5q-167 0 -270 -110.5t-103 -272.5z" />
<glyph unicode="&#xa5;" d="M20 1450h183l395 -614l393 614h176l-458 -668h292v-110h-337v-215h337v-111h-337v-346h-140v346h-338v111h338v215h-338v110h297z" />
<glyph unicode="&#xa6;" horiz-adv-x="454" d="M166 358h123v-716h-123v716zM166 666v716h123v-716h-123z" />
<glyph unicode="&#xa7;" d="M170 -37l135 66q32 -90 105.5 -134.5t164.5 -44.5q40 0 78.5 9.5t76 30.5t60.5 62.5t23 98.5q0 124 -154 197l-260 125q-92 44 -143 106.5t-51 167.5q0 98 58.5 169.5t154.5 101.5q-23 14 -40.5 26.5t-41 35t-39 47t-26.5 60.5t-11 76q0 156 108.5 240t262.5 84 q130 0 218.5 -54t121.5 -139l-121 -61q-22 53 -78 92t-143 39q-100 0 -160.5 -48.5t-60.5 -133.5q0 -46 15.5 -81.5t47.5 -61.5t61.5 -42.5t75.5 -35.5l178 -84q211 -101 211 -291q0 -97 -51.5 -168.5t-130.5 -100.5q146 -89 146 -256q0 -110 -56 -187t-141 -111.5 t-189 -34.5q-142 0 -249.5 59.5t-155.5 175.5zM348 655q0 -76 50.5 -118.5t170.5 -92.5l136 -61q59 14 104 61.5t45 120.5q0 84 -51 132.5t-148 88.5l-125 54q-31 -3 -61 -15t-58 -33t-45.5 -57t-17.5 -80z" />
<glyph unicode="&#xa8;" horiz-adv-x="491" d="M-55 1325q0 41 30 73t74 32t74.5 -32t30.5 -73t-30.5 -72.5t-74.5 -31.5t-74 31.5t-30 72.5zM338 1325q0 41 30 73t74 32t74.5 -32t30.5 -73t-30.5 -72.5t-74.5 -31.5t-74 31.5t-30 72.5z" />
<glyph unicode="&#xa9;" horiz-adv-x="1638" d="M41 723q0 -158 62 -300.5t166.5 -244.5t248.5 -162.5t303 -60.5q158 0 301.5 60.5t247.5 162.5t165.5 244.5t61.5 300.5t-61.5 301.5t-165.5 246.5t-247.5 163.5t-301.5 60.5q-159 0 -303 -60.5t-248.5 -163.5t-166.5 -246.5t-62 -301.5zM164 723q0 133 52 255t140 210 t210 140t255 52q177 0 327.5 -88t238.5 -239.5t88 -329.5q0 -177 -88 -327.5t-238.5 -238t-327.5 -87.5q-133 0 -255 52t-210 139.5t-140 208t-52 253.5zM377 735q0 -201 131.5 -332t331.5 -131q114 0 204 52.5t144 134.5l-107 69q-93 -133 -241 -133q-146 0 -234 99.5 t-88 240.5q0 139 90 238.5t236 99.5q66 0 127.5 -36.5t93.5 -84.5l106 82q-51 74 -141.5 118t-189.5 44q-200 0 -331.5 -131t-131.5 -330z" />
<glyph unicode="&#xaa;" horiz-adv-x="737" d="M82 1047q0 42 16 74.5t47.5 53t68.5 34.5t88 20.5t96 9t102 2.5v16q0 61 -41 93t-109 32q-49 0 -94.5 -17.5t-75.5 -47.5l-65 72q96 86 245 86q124 0 188 -63t64 -163v-252q0 -71 9 -114h-107q-10 45 -10 84h-4q-68 -99 -201 -99q-38 0 -74.5 9.5t-69.5 29.5t-53 56 t-20 84zM203 1049q0 -47 35 -69t86 -22q82 0 129 47.5t47 122.5v31h-31q-266 0 -266 -110z" />
<glyph unicode="&#xab;" horiz-adv-x="987" d="M106 492l287 428l96 -68l-235 -360l235 -361l-96 -68zM479 492l287 428l96 -68l-235 -360l235 -361l-96 -68z" />
<glyph unicode="&#xac;" horiz-adv-x="1363" d="M160 713v123h1044v-570h-123v447h-921z" />
<glyph unicode="&#xad;" horiz-adv-x="655" d="M98 438v117h459v-117h-459z" />
<glyph unicode="&#xae;" horiz-adv-x="1228" d="M147 1010q0 193 136.5 329t330.5 136t330.5 -136t136.5 -329t-136.5 -327t-330.5 -134t-330.5 134t-136.5 327zM221 1010q0 -162 115.5 -278t277.5 -116t278 116t116 278q0 163 -115.5 278t-278.5 115t-278 -115t-115 -278zM432 750v524h184q82 0 138.5 -37.5 t56.5 -116.5q0 -56 -32 -92.5t-89 -48.5l141 -229h-114l-123 219h-68v-219h-94zM526 1044h76q115 0 115 78q0 39 -30.5 55.5t-74.5 16.5h-86v-150z" />
<glyph unicode="&#xaf;" horiz-adv-x="491" d="M-31 1229v110h553v-110h-553z" />
<glyph unicode="&#xb0;" horiz-adv-x="819" d="M104 1169q0 132 87 219t219 87t218.5 -87t86.5 -219t-86.5 -218.5t-218.5 -86.5t-219 86.5t-87 218.5zM203 1169q0 -86 60.5 -146t146.5 -60t146 60t60 146t-60 146.5t-146 60.5t-146.5 -60.5t-60.5 -146.5z" />
<glyph unicode="&#xb1;" horiz-adv-x="1363" d="M160 98v123h1044v-123h-1044zM160 711v123h461v319h122v-319h461v-123h-461v-310h-122v310h-461z" />
<glyph unicode="&#xb2;" horiz-adv-x="757" d="M88 594v117l342 346q88 92 88 176q0 58 -38.5 92.5t-98.5 34.5q-57 0 -99 -38.5t-55 -104.5l-123 18q20 105 97.5 171.5t179.5 66.5q114 0 191 -62.5t77 -177.5q0 -43 -11.5 -81t-36.5 -73t-43.5 -56t-53.5 -56l-262 -262h411v-111h-565z" />
<glyph unicode="&#xb3;" horiz-adv-x="757" d="M80 778l117 39q20 -59 65.5 -92t106.5 -33q68 0 115.5 39.5t47.5 110.5q0 77 -56.5 113t-139.5 36h-55v105h55q78 0 125 34.5t47 108.5q0 56 -40.5 91.5t-100.5 35.5q-46 0 -87 -26.5t-67 -75.5l-102 53q44 79 111.5 118.5t148.5 39.5q112 0 186 -61t74 -173 q0 -63 -31.5 -112t-85.5 -78q66 -25 103.5 -79.5t37.5 -129.5q0 -122 -82 -191t-204 -69q-209 0 -289 196z" />
<glyph unicode="&#xb4;" horiz-adv-x="491" d="M121 1155l205 295h186l-270 -295h-121z" />
<glyph unicode="&#xb5;" horiz-adv-x="1138" d="M147 -467v1425h136v-530q0 -180 57 -255t203 -75q127 0 209 98.5t82 270.5v491h135v-747q0 -36 10 -211h-145v156h-5q-46 -74 -137 -127.5t-184 -53.5q-140 0 -225 60v-502h-136z" />
<glyph unicode="&#xb6;" horiz-adv-x="1228" d="M98 1028q0 198 125 310t342 112h486v-1708h-136v1597h-253v-1597h-136v905q-186 0 -307 110t-121 271z" />
<glyph unicode="&#xb7;" horiz-adv-x="532" d="M156 643q0 44 31 77.5t79 33.5t79.5 -33.5t31.5 -77.5t-31.5 -77.5t-79.5 -33.5t-79 33.5t-31 77.5z" />
<glyph unicode="&#xb8;" horiz-adv-x="491" d="M29 -430l32 74q65 -29 148 -29q43 0 87 22.5t44 67.5q0 39 -29.5 59.5t-81.5 20.5q-45 0 -88 -16l-37 30l127 201h88l-96 -154q30 9 72 9q67 0 117.5 -39.5t50.5 -108.5q0 -49 -21.5 -85t-58 -55.5t-77 -28.5t-85.5 -9q-105 0 -192 41z" />
<glyph unicode="&#xb9;" horiz-adv-x="757" d="M141 1262l230 188h104v-864h-125v708l-131 -116z" />
<glyph unicode="&#xba;" horiz-adv-x="737" d="M57 1171q0 133 88.5 218.5t223.5 85.5t223 -85.5t88 -218.5q0 -132 -88 -217.5t-223 -85.5t-223.5 85.5t-88.5 217.5zM176 1171q0 -87 51 -147.5t142 -60.5t141.5 60.5t50.5 147.5q0 88 -50.5 148.5t-141.5 60.5t-142 -60.5t-51 -148.5z" />
<glyph unicode="&#xbb;" horiz-adv-x="987" d="M125 131l235 361l-235 360l96 68l287 -428l-287 -429zM498 131l235 361l-235 360l96 68l287 -428l-287 -429z" />
<glyph unicode="&#xbc;" horiz-adv-x="1720" d="M141 1262l230 188h104v-864h-125v708l-131 -116zM338 -8l924 1521l104 -55l-922 -1521zM983 201v106l358 557h140v-553h123v-110h-123v-201h-113v201h-385zM1112 311h256v385h-6z" />
<glyph unicode="&#xbd;" horiz-adv-x="1720" d="M141 1262l230 188h104v-864h-125v708l-131 -116zM338 -8l924 1521l104 -55l-922 -1521zM1044 0v117l342 346q41 43 65 84t24 92q0 57 -39 92t-99 35q-57 0 -98.5 -38.5t-54.5 -104.5l-123 18q20 105 97 171.5t179 66.5q114 0 191.5 -63t77.5 -177q0 -43 -11.5 -80.5 t-37 -73.5t-43.5 -56t-54 -56l-262 -262h412v-111h-566z" />
<glyph unicode="&#xbe;" horiz-adv-x="1720" d="M80 778l117 39q20 -59 65.5 -92t106.5 -33q68 0 115.5 39.5t47.5 110.5q0 77 -56.5 113t-139.5 36h-55v105h55q78 0 125 34.5t47 108.5q0 56 -40.5 91.5t-100.5 35.5q-46 0 -87 -26.5t-67 -75.5l-102 53q44 79 111.5 118.5t148.5 39.5q112 0 186 -61t74 -173 q0 -63 -31.5 -112t-85.5 -78q66 -25 103.5 -79.5t37.5 -129.5q0 -122 -82 -191t-204 -69q-209 0 -289 196zM338 -8l924 1521l104 -55l-922 -1521zM983 201v106l358 557h140v-553h123v-110h-123v-201h-113v201h-385zM1112 311h256v385h-6z" />
<glyph unicode="&#xbf;" horiz-adv-x="987" d="M94 -133q0 63 13.5 113t43.5 91.5t57 67.5t75 66q64 52 93 85t45.5 81.5t16.5 122.5v94h144v-123q0 -56 -12.5 -102.5t-39 -85t-50.5 -64t-62 -59.5l-58 -52q-118 -95 -118 -227q0 -112 73 -177t183 -65q107 0 178 66.5t86 173.5l139 -25q-31 -158 -141 -250t-268 -92 q-111 0 -200.5 41.5t-143.5 124.5t-54 195zM385 883q0 44 31.5 77t79.5 33t79 -33t31 -77t-31 -77.5t-79 -33.5t-79.5 33.5t-31.5 77.5z" />
<glyph unicode="&#xc0;" horiz-adv-x="1433" d="M20 0l627 1450h144l622 -1450h-164l-159 381h-750l-158 -381h-162zM393 1860h187l204 -295h-120zM395 516h639l-319 770z" />
<glyph unicode="&#xc1;" horiz-adv-x="1433" d="M20 0l627 1450h144l622 -1450h-164l-159 381h-750l-158 -381h-162zM395 516h639l-319 770zM655 1565l205 295h187l-271 -295h-121z" />
<glyph unicode="&#xc2;" horiz-adv-x="1433" d="M20 0l627 1450h144l622 -1450h-164l-159 381h-750l-158 -381h-162zM395 516h639l-319 770zM410 1565l223 295h164l223 -295h-135l-170 221l-170 -221h-135z" />
<glyph unicode="&#xc3;" horiz-adv-x="1433" d="M20 0l627 1450h144l622 -1450h-164l-159 381h-750l-158 -381h-162zM385 1589q36 213 188 213q58 0 150 -47q3 -1 16 -7.5t16.5 -8t15 -6.5t16.5 -7l15 -6t15.5 -5.5t14 -3.5t15 -2.5t13.5 -0.5q77 0 101 102h88q-36 -213 -189 -213q-59 0 -149 48q-88 47 -138 47 q-76 0 -100 -103h-88zM395 516h639l-319 770z" />
<glyph unicode="&#xc4;" horiz-adv-x="1433" d="M20 0l627 1450h144l622 -1450h-164l-159 381h-750l-158 -381h-162zM395 516h639l-319 770zM418 1735q0 41 30 72.5t74 31.5t74.5 -31.5t30.5 -72.5t-30.5 -73t-74.5 -32t-74 32t-30 73zM811 1735q0 41 30 72.5t74 31.5t74.5 -31.5t30.5 -72.5t-30.5 -73t-74.5 -32t-74 32 t-30 73z" />
<glyph unicode="&#xc5;" horiz-adv-x="1433" d="M20 0l627 1450h144l622 -1450h-164l-159 381h-750l-158 -381h-162zM395 516h639l-319 770zM520 1741q0 82 58 138t139 56t138.5 -56t57.5 -138t-58 -138.5t-138 -56.5q-81 0 -139 56.5t-58 138.5zM594 1741q0 -51 36 -86t87 -35t87 35t36 86t-36 86t-87 35t-87 -35 t-36 -86z" />
<glyph unicode="&#xc6;" horiz-adv-x="2027" d="M23 0l944 1450h925v-131h-682v-500h633v-129h-633v-559h707v-131h-854v406h-610l-263 -406h-167zM528 535h535v784h-29z" />
<glyph unicode="&#xc7;" horiz-adv-x="1474" d="M115 725q0 162 57.5 304t157.5 242.5t240 158t300 57.5t300.5 -62.5t215.5 -167.5l-122 -90q-50 78 -156.5 134.5t-235.5 56.5q-182 0 -321 -88.5t-210 -231t-71 -313.5q0 -127 42 -241.5t118.5 -201.5t191 -138.5t250.5 -51.5q130 0 242 53.5t184 161.5l115 -74 q-78 -118 -218.5 -194t-324.5 -76l-71 -117q30 9 71 9q67 0 117.5 -39.5t50.5 -108.5q0 -49 -21.5 -85t-58 -55.5t-76.5 -28.5t-85 -9q-106 0 -193 41l33 74q65 -29 147 -29q43 0 87 22.5t44 67.5q0 39 -29 59.5t-81 20.5q-45 0 -88 -16l-37 30l106 168q-146 14 -271 77 t-213 162t-137.5 233t-49.5 286z" />
<glyph unicode="&#xc8;" horiz-adv-x="1212" d="M193 0v1450h899v-131h-752v-500h702v-129h-702v-559h776v-131h-923zM377 1860h186l205 -295h-121z" />
<glyph unicode="&#xc9;" horiz-adv-x="1212" d="M193 0v1450h899v-131h-752v-500h702v-129h-702v-559h776v-131h-923zM543 1565l205 295h186l-270 -295h-121z" />
<glyph unicode="&#xca;" horiz-adv-x="1212" d="M193 0v1450h899v-131h-752v-500h702v-129h-702v-559h776v-131h-923zM342 1565l223 295h164l223 -295h-135l-170 221l-170 -221h-135z" />
<glyph unicode="&#xcb;" horiz-adv-x="1212" d="M193 0v1450h899v-131h-752v-500h702v-129h-702v-559h776v-131h-923zM346 1735q0 41 30.5 72.5t74.5 31.5t74 -31.5t30 -72.5t-30 -73t-74 -32t-74.5 32t-30.5 73zM739 1735q0 41 30.5 72.5t74.5 31.5t74 -31.5t30 -72.5t-30 -73t-74 -32t-74.5 32t-30.5 73z" />
<glyph unicode="&#xcc;" horiz-adv-x="532" d="M-53 1860h186l205 -295h-121zM193 0v1450h147v-1450h-147z" />
<glyph unicode="&#xcd;" horiz-adv-x="532" d="M193 0v1450h147v-1450h-147zM193 1565l204 295h187l-271 -295h-120z" />
<glyph unicode="&#xce;" horiz-adv-x="532" d="M-39 1565l223 295h164l223 -295h-135l-170 221l-170 -221h-135zM193 0v1450h147v-1450h-147z" />
<glyph unicode="&#xcf;" horiz-adv-x="532" d="M-35 1735q0 41 30.5 72.5t74.5 31.5t74 -31.5t30 -72.5t-30 -73t-74 -32t-74.5 32t-30.5 73zM193 0v1450h147v-1450h-147zM358 1735q0 41 30.5 72.5t74.5 31.5t74 -31.5t30 -72.5t-30 -73t-74 -32t-74.5 32t-30.5 73z" />
<glyph unicode="&#xd0;" horiz-adv-x="1550" d="M27 711v110h149v629h481q110 0 218 -28.5t206.5 -88.5t173.5 -144t119.5 -204t44.5 -260t-44.5 -260t-119.5 -204t-173.5 -144t-206.5 -88.5t-218 -28.5h-481v711h-149zM324 135h286q129 0 237 32.5t183 89t128 132t77.5 160.5t24.5 176t-24.5 176t-77.5 160.5t-128 132 t-183 89t-237 32.5h-286v-494h528v-110h-528v-576z" />
<glyph unicode="&#xd1;" horiz-adv-x="1564" d="M193 0v1450h184l844 -1235h4v1235h147v-1450h-184l-844 1247h-4v-1247h-147zM457 1589q36 213 188 213q58 0 150 -47q3 -1 16 -7.5t16.5 -8t15 -6.5t16.5 -7l15 -6t15.5 -5.5t14 -3.5t15 -2.5t13.5 -0.5q76 0 100 102h88q-36 -213 -188 -213q-60 0 -150 48 q-88 47 -137 47q-76 0 -100 -103h-88z" />
<glyph unicode="&#xd2;" horiz-adv-x="1740" d="M115 725q0 162 57.5 304t157.5 242.5t240 158t300 57.5q213 0 386 -98t271.5 -272.5t98.5 -391.5t-98.5 -391.5t-271.5 -272.5t-386 -98q-160 0 -300 57.5t-240 158t-157.5 242.5t-57.5 304zM270 725q0 -127 42 -241.5t117.5 -201t190 -137.5t250.5 -51t250.5 51 t190 137.5t117.5 201t42 241.5q0 171 -71 313.5t-209.5 231t-319.5 88.5t-319.5 -88.5t-209.5 -231t-71 -313.5zM629 1860h186l205 -295h-121z" />
<glyph unicode="&#xd3;" horiz-adv-x="1740" d="M115 725q0 162 57.5 304t157.5 242.5t240 158t300 57.5q213 0 386 -98t271.5 -272.5t98.5 -391.5t-98.5 -391.5t-271.5 -272.5t-386 -98q-160 0 -300 57.5t-240 158t-157.5 242.5t-57.5 304zM270 725q0 -127 42 -241.5t117.5 -201t190 -137.5t250.5 -51t250.5 51 t190 137.5t117.5 201t42 241.5q0 171 -71 313.5t-209.5 231t-319.5 88.5t-319.5 -88.5t-209.5 -231t-71 -313.5zM752 1565l204 295h187l-271 -295h-120z" />
<glyph unicode="&#xd4;" horiz-adv-x="1740" d="M115 725q0 162 57.5 304t157.5 242.5t240 158t300 57.5q213 0 386 -98t271.5 -272.5t98.5 -391.5t-98.5 -391.5t-271.5 -272.5t-386 -98q-160 0 -300 57.5t-240 158t-157.5 242.5t-57.5 304zM270 725q0 -127 42 -241.5t117.5 -201t190 -137.5t250.5 -51t250.5 51 t190 137.5t117.5 201t42 241.5q0 171 -71 313.5t-209.5 231t-319.5 88.5t-319.5 -88.5t-209.5 -231t-71 -313.5zM565 1565l223 295h164l224 -295h-136l-170 221l-170 -221h-135z" />
<glyph unicode="&#xd5;" horiz-adv-x="1740" d="M115 725q0 162 57.5 304t157.5 242.5t240 158t300 57.5q213 0 386 -98t271.5 -272.5t98.5 -391.5t-98.5 -391.5t-271.5 -272.5t-386 -98q-160 0 -300 57.5t-240 158t-157.5 242.5t-57.5 304zM270 725q0 -127 42 -241.5t117.5 -201t190 -137.5t250.5 -51t250.5 51 t190 137.5t117.5 201t42 241.5q0 171 -71 313.5t-209.5 231t-319.5 88.5t-319.5 -88.5t-209.5 -231t-71 -313.5zM539 1589q36 213 188 213q58 0 150 -47q3 -1 16 -7.5t16.5 -8t15 -6.5t16.5 -7l15 -6t15.5 -5.5t14 -3.5t15 -2.5t13.5 -0.5q76 0 100 102h88 q-36 -213 -188 -213q-60 0 -150 48q-88 47 -137 47q-76 0 -100 -103h-88z" />
<glyph unicode="&#xd6;" horiz-adv-x="1740" d="M115 725q0 162 57.5 304t157.5 242.5t240 158t300 57.5q213 0 386 -98t271.5 -272.5t98.5 -391.5t-98.5 -391.5t-271.5 -272.5t-386 -98q-160 0 -300 57.5t-240 158t-157.5 242.5t-57.5 304zM270 725q0 -127 42 -241.5t117.5 -201t190 -137.5t250.5 -51t250.5 51 t190 137.5t117.5 201t42 241.5q0 171 -71 313.5t-209.5 231t-319.5 88.5t-319.5 -88.5t-209.5 -231t-71 -313.5zM569 1735q0 41 30.5 72.5t74.5 31.5t74 -31.5t30 -72.5t-30 -73t-74 -32t-74.5 32t-30.5 73zM963 1735q0 41 30 72.5t74 31.5t74 -31.5t30 -72.5t-30 -73 t-74 -32t-74 32t-30 73z" />
<glyph unicode="&#xd7;" horiz-adv-x="1363" d="M270 295l326 326l-326 327l86 86l326 -325l324 325l88 -86l-326 -327l326 -326l-88 -88l-324 325l-326 -325z" />
<glyph unicode="&#xd8;" horiz-adv-x="1740" d="M115 725q0 162 57.5 304t157.5 242.5t240 158t300 57.5q279 0 484 -166l155 166l76 -70l-155 -168q196 -209 196 -524q0 -217 -98.5 -391.5t-271.5 -272.5t-386 -98q-280 0 -483 166l-156 -166l-75 70l155 168q-196 209 -196 524zM270 725q0 -119 36.5 -228t105.5 -190 l850 912q-152 139 -392 139q-137 0 -252 -51.5t-190 -138.5t-116.5 -201.5t-41.5 -241.5zM483 231q156 -137 387 -137q138 0 252.5 51t189.5 138t116.5 201t41.5 241q0 118 -35 227t-102 191z" />
<glyph unicode="&#xd9;" horiz-adv-x="1454" d="M184 541v909h148v-893q0 -73 12.5 -138t42 -125.5t74 -104t112.5 -69.5t154 -26t154 26t112.5 69.5t74 104t42 125.5t12.5 138v893h148v-909q0 -79 -14 -154t-52.5 -153.5t-97.5 -137t-156.5 -96t-222.5 -37.5t-222.5 37.5t-156.5 96t-97.5 137t-52.5 153.5t-14 154z M459 1860h186l205 -295h-121z" />
<glyph unicode="&#xda;" horiz-adv-x="1454" d="M184 541v909h148v-893q0 -73 12.5 -138t42 -125.5t74 -104t112.5 -69.5t154 -26t154 26t112.5 69.5t74 104t42 125.5t12.5 138v893h148v-909q0 -79 -14 -154t-52.5 -153.5t-97.5 -137t-156.5 -96t-222.5 -37.5t-222.5 37.5t-156.5 96t-97.5 137t-52.5 153.5t-14 154z M627 1565l204 295h187l-270 -295h-121z" />
<glyph unicode="&#xdb;" horiz-adv-x="1454" d="M184 541v909h148v-893q0 -73 12.5 -138t42 -125.5t74 -104t112.5 -69.5t154 -26t154 26t112.5 69.5t74 104t42 125.5t12.5 138v893h148v-909q0 -79 -14 -154t-52.5 -153.5t-97.5 -137t-156.5 -96t-222.5 -37.5t-222.5 37.5t-156.5 96t-97.5 137t-52.5 153.5t-14 154z M422 1565l223 295h164l223 -295h-135l-170 221l-170 -221h-135z" />
<glyph unicode="&#xdc;" horiz-adv-x="1454" d="M184 541v909h148v-893q0 -73 12.5 -138t42 -125.5t74 -104t112.5 -69.5t154 -26t154 26t112.5 69.5t74 104t42 125.5t12.5 138v893h148v-909q0 -79 -14 -154t-52.5 -153.5t-97.5 -137t-156.5 -96t-222.5 -37.5t-222.5 37.5t-156.5 96t-97.5 137t-52.5 153.5t-14 154z M428 1735q0 41 30 72.5t74 31.5t74.5 -31.5t30.5 -72.5t-30.5 -73t-74.5 -32t-74 32t-30 73zM821 1735q0 41 30.5 72.5t74.5 31.5t74 -31.5t30 -72.5t-30 -73t-74 -32t-74.5 32t-30.5 73z" />
<glyph unicode="&#xdd;" horiz-adv-x="1232" d="M0 1450h184l437 -702l440 702h172l-543 -825v-625h-147v625zM563 1565l205 295h186l-270 -295h-121z" />
<glyph unicode="&#xde;" d="M193 0v1450h147v-317h262q228 0 359 -99t131 -289t-133 -289.5t-361 -99.5h-258v-356h-147zM340 485h238q173 0 263.5 66t90.5 194q0 256 -354 256h-238v-516z" />
<glyph unicode="&#xdf;" horiz-adv-x="1222" d="M180 0v1114q0 68 12 130t42.5 123.5t77.5 106t123.5 72t174.5 27.5q163 0 278.5 -99t115.5 -264q0 -240 -238 -325v-4q156 -19 253 -135t97 -289q0 -219 -133.5 -350.5t-357.5 -131.5q-53 0 -113 11v116q54 -8 98 -8q164 0 262.5 98t98.5 267q0 174 -106.5 266t-289.5 92 h-18v123h16q131 0 210 65t79 193q0 118 -74 185t-184 67q-69 0 -121.5 -22t-83 -56t-49 -81t-25 -90t-6.5 -91v-1110h-139z" />
<glyph unicode="&#xe0;" horiz-adv-x="1093" d="M113 266q0 62 20 111t52 82t84 57.5t105.5 38t127.5 21t137.5 10t148.5 2.5v30q0 124 -65 186t-191 62q-83 0 -157.5 -30t-126.5 -82l-78 92q61 61 160 99t217 38q163 0 268 -90t105 -258v-420q0 -130 16 -215h-125q-14 82 -14 156h-4q-66 -95 -149.5 -138t-199.5 -43 q-58 0 -113.5 16t-105.5 49t-81 91.5t-31 134.5zM256 272q0 -65 34.5 -107.5t83 -58.5t107.5 -16q142 0 224.5 92t82.5 226v71h-40q-63 0 -116 -3t-112 -10t-104 -22t-82.5 -37t-57.5 -56.5t-20 -78.5zM295 1450h186l205 -295h-121z" />
<glyph unicode="&#xe1;" horiz-adv-x="1093" d="M113 266q0 62 20 111t52 82t84 57.5t105.5 38t127.5 21t137.5 10t148.5 2.5v30q0 124 -65 186t-191 62q-83 0 -157.5 -30t-126.5 -82l-78 92q61 61 160 99t217 38q163 0 268 -90t105 -258v-420q0 -130 16 -215h-125q-14 82 -14 156h-4q-66 -95 -149.5 -138t-199.5 -43 q-58 0 -113.5 16t-105.5 49t-81 91.5t-31 134.5zM256 272q0 -65 34.5 -107.5t83 -58.5t107.5 -16q142 0 224.5 92t82.5 226v71h-40q-63 0 -116 -3t-112 -10t-104 -22t-82.5 -37t-57.5 -56.5t-20 -78.5zM440 1155l205 295h186l-270 -295h-121z" />
<glyph unicode="&#xe2;" horiz-adv-x="1093" d="M113 266q0 62 20 111t52 82t84 57.5t105.5 38t127.5 21t137.5 10t148.5 2.5v30q0 124 -65 186t-191 62q-83 0 -157.5 -30t-126.5 -82l-78 92q61 61 160 99t217 38q163 0 268 -90t105 -258v-420q0 -130 16 -215h-125q-14 82 -14 156h-4q-66 -95 -149.5 -138t-199.5 -43 q-58 0 -113.5 16t-105.5 49t-81 91.5t-31 134.5zM246 1155l223 295h164l223 -295h-135l-170 221l-170 -221h-135zM256 272q0 -65 34.5 -107.5t83 -58.5t107.5 -16q142 0 224.5 92t82.5 226v71h-40q-63 0 -116 -3t-112 -10t-104 -22t-82.5 -37t-57.5 -56.5t-20 -78.5z" />
<glyph unicode="&#xe3;" horiz-adv-x="1093" d="M113 266q0 62 20 111t52 82t84 57.5t105.5 38t127.5 21t137.5 10t148.5 2.5v30q0 124 -65 186t-191 62q-83 0 -157.5 -30t-126.5 -82l-78 92q61 61 160 99t217 38q163 0 268 -90t105 -258v-420q0 -130 16 -215h-125q-14 82 -14 156h-4q-66 -95 -149.5 -138t-199.5 -43 q-58 0 -113.5 16t-105.5 49t-81 91.5t-31 134.5zM211 1180q36 213 188 213q58 0 150 -47q5 -2 20.5 -9.5t21.5 -10.5t19 -8.5t20.5 -8t18.5 -6t19.5 -4.5t17.5 -1q76 0 100 103h88q-36 -213 -188 -213q-61 0 -149 47t-138 47q-76 0 -100 -102h-88zM256 272 q0 -65 34.5 -107.5t83 -58.5t107.5 -16q142 0 224.5 92t82.5 226v71h-40q-63 0 -116 -3t-112 -10t-104 -22t-82.5 -37t-57.5 -56.5t-20 -78.5z" />
<glyph unicode="&#xe4;" horiz-adv-x="1093" d="M113 266q0 62 20 111t52 82t84 57.5t105.5 38t127.5 21t137.5 10t148.5 2.5v30q0 124 -65 186t-191 62q-83 0 -157.5 -30t-126.5 -82l-78 92q61 61 160 99t217 38q163 0 268 -90t105 -258v-420q0 -130 16 -215h-125q-14 82 -14 156h-4q-66 -95 -149.5 -138t-199.5 -43 q-58 0 -113.5 16t-105.5 49t-81 91.5t-31 134.5zM244 1325q0 41 30 73t74 32t74.5 -32t30.5 -73t-30.5 -72.5t-74.5 -31.5t-74 31.5t-30 72.5zM256 272q0 -65 34.5 -107.5t83 -58.5t107.5 -16q142 0 224.5 92t82.5 226v71h-40q-63 0 -116 -3t-112 -10t-104 -22t-82.5 -37 t-57.5 -56.5t-20 -78.5zM637 1325q0 41 30 73t74 32t74.5 -32t30.5 -73t-30.5 -72.5t-74.5 -31.5t-74 31.5t-30 72.5z" />
<glyph unicode="&#xe5;" horiz-adv-x="1093" d="M113 266q0 62 20 111t52 82t84 57.5t105.5 38t127.5 21t137.5 10t148.5 2.5v30q0 124 -65 186t-191 62q-83 0 -157.5 -30t-126.5 -82l-78 92q61 61 160 99t217 38q163 0 268 -90t105 -258v-420q0 -130 16 -215h-125q-14 82 -14 156h-4q-66 -95 -149.5 -138t-199.5 -43 q-58 0 -113.5 16t-105.5 49t-81 91.5t-31 134.5zM256 272q0 -65 34.5 -107.5t83 -58.5t107.5 -16q142 0 224.5 92t82.5 226v71h-40q-63 0 -116 -3t-112 -10t-104 -22t-82.5 -37t-57.5 -56.5t-20 -78.5zM346 1331q0 82 58 138.5t139 56.5q80 0 138 -56.5t58 -138.5 t-57.5 -138t-138.5 -56t-139 56t-58 138zM420 1331q0 -51 36 -86t87 -35t87 35t36 86t-36 86t-87 35t-87 -35t-36 -86z" />
<glyph unicode="&#xe6;" horiz-adv-x="1781" d="M115 256q0 57 20 102t53 76t85 53t105 34.5t125 20t133.5 9.5t141.5 2v31q0 129 -62.5 205.5t-183.5 76.5q-83 0 -160 -30t-134 -82l-80 90q64 61 170 100t225 39q114 0 197 -53t118 -148q58 92 154.5 146.5t208.5 54.5q139 0 239.5 -65t148.5 -170.5t48 -239.5 q0 -48 -2 -66h-758q3 -146 99.5 -248t234.5 -102q97 0 174 48t119 118l100 -80q-155 -203 -393 -203q-133 0 -233 60t-148 164q-95 -224 -399 -224q-52 0 -100 9.5t-93.5 31t-79 53t-53.5 80t-20 107.5zM258 258q0 -170 227 -170q144 0 218.5 76.5t74.5 208.5v69h-41 q-71 0 -122.5 -2t-111 -8t-100 -19t-75.5 -32.5t-52.5 -50.5t-17.5 -72zM913 553h613q0 139 -79.5 226t-215.5 87q-125 0 -219 -94.5t-99 -218.5z" />
<glyph unicode="&#xe7;" horiz-adv-x="1024" d="M115 479q0 219 141.5 361.5t370.5 142.5q102 0 199.5 -43t156.5 -123l-109 -78q-34 56 -101 91.5t-144 35.5q-165 0 -266 -110t-101 -277q0 -166 100.5 -275.5t264.5 -109.5q167 0 260 125l104 -78q-131 -160 -352 -166l-80 -129q30 9 72 9q67 0 117.5 -39.5t50.5 -108.5 q0 -49 -21.5 -85t-58 -55.5t-77 -28.5t-85.5 -9q-105 0 -192 41l32 74q65 -29 148 -29q43 0 87 22.5t44 67.5q0 39 -29.5 59.5t-81.5 20.5q-45 0 -88 -16l-37 30l113 181q-198 23 -318 160.5t-120 338.5z" />
<glyph unicode="&#xe8;" horiz-adv-x="1171" d="M115 479q0 216 139 360t344 144q146 0 251.5 -65t156.5 -171t51 -239q0 -41 -2 -66h-795q3 -146 103 -247t247 -101q101 0 183 48t125 118l104 -82q-160 -203 -412 -203q-214 0 -354.5 143.5t-140.5 360.5zM262 553h653q-6 140 -89 226.5t-228 86.5q-136 0 -231.5 -93 t-104.5 -220zM307 1450h187l204 -295h-120z" />
<glyph unicode="&#xe9;" horiz-adv-x="1171" d="M115 479q0 216 139 360t344 144q146 0 251.5 -65t156.5 -171t51 -239q0 -41 -2 -66h-795q3 -146 103 -247t247 -101q101 0 183 48t125 118l104 -82q-160 -203 -412 -203q-214 0 -354.5 143.5t-140.5 360.5zM262 553h653q-6 140 -89 226.5t-228 86.5q-136 0 -231.5 -93 t-104.5 -220zM514 1155l205 295h186l-270 -295h-121z" />
<glyph unicode="&#xea;" horiz-adv-x="1171" d="M115 479q0 216 139 360t344 144q146 0 251.5 -65t156.5 -171t51 -239q0 -41 -2 -66h-795q3 -146 103 -247t247 -101q101 0 183 48t125 118l104 -82q-160 -203 -412 -203q-214 0 -354.5 143.5t-140.5 360.5zM262 553h653q-6 140 -89 226.5t-228 86.5q-136 0 -231.5 -93 t-104.5 -220zM307 1155l223 295h164l224 -295h-136l-170 221l-170 -221h-135z" />
<glyph unicode="&#xeb;" horiz-adv-x="1171" d="M115 479q0 216 139 360t344 144q146 0 251.5 -65t156.5 -171t51 -239q0 -41 -2 -66h-795q3 -146 103 -247t247 -101q101 0 183 48t125 118l104 -82q-160 -203 -412 -203q-214 0 -354.5 143.5t-140.5 360.5zM262 553h653q-6 140 -89 226.5t-228 86.5q-136 0 -231.5 -93 t-104.5 -220zM311 1325q0 41 30.5 73t74.5 32t74 -32t30 -73t-30 -72.5t-74 -31.5t-74.5 31.5t-30.5 72.5zM705 1325q0 41 30 73t74 32t74 -32t30 -73t-30 -72.5t-74 -31.5t-74 31.5t-30 72.5z" />
<glyph unicode="&#xec;" horiz-adv-x="512" d="M-68 1450h187l205 -295h-121zM186 0v958h140v-958h-140z" />
<glyph unicode="&#xed;" horiz-adv-x="512" d="M186 0v958h140v-958h-140zM186 1155l205 295h187l-271 -295h-121z" />
<glyph unicode="&#xee;" horiz-adv-x="512" d="M-45 1155l223 295h164l223 -295h-135l-170 221l-170 -221h-135zM186 0v958h140v-958h-140z" />
<glyph unicode="&#xef;" horiz-adv-x="512" d="M-43 1325q0 41 30 73t74 32t74.5 -32t30.5 -73t-30.5 -72.5t-74.5 -31.5t-74 31.5t-30 72.5zM186 0v958h140v-958h-140zM350 1325q0 41 30.5 73t74.5 32t74 -32t30 -73t-30 -72.5t-74 -31.5t-74.5 31.5t-30.5 72.5z" />
<glyph unicode="&#xf0;" horiz-adv-x="1251" d="M98 479q0 218 143 361t365 143q88 0 160.5 -28.5t146.5 -90.5l5 4q-116 244 -320 420l-229 -117l-74 74l225 115q-56 55 -205 158l121 75q119 -87 205 -168l209 109l82 -72l-211 -110q177 -164 286 -383.5t109 -452.5q0 -77 -16.5 -151t-55.5 -145.5t-96 -125 t-145.5 -86.5t-196.5 -33q-222 0 -365 143t-143 361zM246 479q0 -165 98.5 -273t261.5 -108q164 0 263.5 108t99.5 273t-99.5 273t-263.5 108q-163 0 -261.5 -108t-98.5 -273z" />
<glyph unicode="&#xf1;" horiz-adv-x="1189" d="M176 958h133q8 -102 8 -163h5q39 83 132 135.5t195 52.5q179 0 272 -106t93 -289v-588h-140v530q0 79 -12.5 138t-41.5 105t-80.5 69.5t-125.5 23.5q-120 0 -205 -96.5t-85 -277.5v-492h-140v748q0 122 -8 210zM268 1180q36 213 189 213q57 0 149 -47q5 -2 20.5 -9.5 t21.5 -10.5t19 -8.5t20.5 -8t18.5 -6t19.5 -4.5t17.5 -1q77 0 101 103h88q-36 -213 -189 -213q-61 0 -149 47t-137 47q-77 0 -101 -102h-88z" />
<glyph unicode="&#xf2;" horiz-adv-x="1251" d="M115 479q0 218 144 361t366 143q223 0 367.5 -143t144.5 -361t-144.5 -361t-367.5 -143q-222 0 -366 143t-144 361zM262 479q0 -165 100 -275t263 -110q164 0 264 110t100 275t-100 276t-264 111q-162 0 -262.5 -111t-100.5 -276zM313 1450h187l205 -295h-121z" />
<glyph unicode="&#xf3;" horiz-adv-x="1251" d="M115 479q0 218 144 361t366 143q223 0 367.5 -143t144.5 -361t-144.5 -361t-367.5 -143q-222 0 -366 143t-144 361zM262 479q0 -165 100 -275t263 -110q164 0 264 110t100 275t-100 276t-264 111q-162 0 -262.5 -111t-100.5 -276zM541 1155l204 295h187l-270 -295h-121z " />
<glyph unicode="&#xf4;" horiz-adv-x="1251" d="M115 479q0 218 144 361t366 143q223 0 367.5 -143t144.5 -361t-144.5 -361t-367.5 -143q-222 0 -366 143t-144 361zM262 479q0 -165 100 -275t263 -110q164 0 264 110t100 275t-100 276t-264 111q-162 0 -262.5 -111t-100.5 -276zM319 1155l224 295h164l223 -295h-135 l-170 221l-170 -221h-136z" />
<glyph unicode="&#xf5;" horiz-adv-x="1251" d="M115 479q0 218 144 361t366 143q223 0 367.5 -143t144.5 -361t-144.5 -361t-367.5 -143q-222 0 -366 143t-144 361zM262 479q0 -165 100 -275t263 -110q164 0 264 110t100 275t-100 276t-264 111q-162 0 -262.5 -111t-100.5 -276zM293 1180q36 213 188 213q58 0 150 -47 q5 -2 20.5 -9.5t21.5 -10.5t19 -8.5t20.5 -8t18.5 -6t19.5 -4.5t17.5 -1q76 0 100 103h88q-36 -213 -188 -213q-62 0 -150 47t-137 47q-76 0 -100 -102h-88z" />
<glyph unicode="&#xf6;" horiz-adv-x="1251" d="M115 479q0 218 144 361t366 143q223 0 367.5 -143t144.5 -361t-144.5 -361t-367.5 -143q-222 0 -366 143t-144 361zM262 479q0 -165 100 -275t263 -110q164 0 264 110t100 275t-100 276t-264 111q-162 0 -262.5 -111t-100.5 -276zM324 1325q0 41 30 73t74 32t74 -32 t30 -73t-30 -72.5t-74 -31.5t-74 31.5t-30 72.5zM717 1325q0 41 30 73t74 32t74.5 -32t30.5 -73t-30.5 -72.5t-74.5 -31.5t-74 31.5t-30 72.5z" />
<glyph unicode="&#xf7;" horiz-adv-x="1363" d="M160 559v123h1044v-123h-1044zM571 289q0 44 31.5 77t79.5 33t79.5 -33t31.5 -77t-31.5 -77.5t-79.5 -33.5t-79.5 33.5t-31.5 77.5zM571 952q0 44 31.5 77.5t79.5 33.5t79.5 -33.5t31.5 -77.5t-31.5 -77t-79.5 -33t-79.5 33t-31.5 77z" />
<glyph unicode="&#xf8;" horiz-adv-x="1251" d="M98 6l135 139q-118 137 -118 334q0 218 143 361t365 143q188 0 325 -106l135 139l66 -64l-135 -139q123 -140 123 -334q0 -217 -145 -360.5t-369 -143.5q-189 0 -322 107l-137 -139zM256 479q0 -149 70 -241l536 550q-39 39 -102 60.5t-135 21.5q-166 0 -267.5 -112 t-101.5 -279zM385 168q100 -80 236 -80q167 0 270.5 111.5t103.5 279.5q0 152 -73 240z" />
<glyph unicode="&#xf9;" horiz-adv-x="1189" d="M176 371v587h139v-530q0 -79 12.5 -138t41.5 -105t80.5 -69.5t125.5 -23.5q120 0 205.5 97t85.5 278v491h140v-747q0 -123 8 -211h-133q-9 115 -9 164h-4q-39 -83 -132 -136t-195 -53q-179 0 -272 106t-93 290zM297 1450h186l205 -295h-121z" />
<glyph unicode="&#xfa;" horiz-adv-x="1189" d="M176 371v587h139v-530q0 -79 12.5 -138t41.5 -105t80.5 -69.5t125.5 -23.5q120 0 205.5 97t85.5 278v491h140v-747q0 -123 8 -211h-133q-9 115 -9 164h-4q-39 -83 -132 -136t-195 -53q-179 0 -272 106t-93 290zM494 1155l204 295h187l-271 -295h-120z" />
<glyph unicode="&#xfb;" horiz-adv-x="1189" d="M176 371v587h139v-530q0 -79 12.5 -138t41.5 -105t80.5 -69.5t125.5 -23.5q120 0 205.5 97t85.5 278v491h140v-747q0 -123 8 -211h-133q-9 115 -9 164h-4q-39 -83 -132 -136t-195 -53q-179 0 -272 106t-93 290zM287 1155l223 295h164l223 -295h-135l-170 221l-170 -221 h-135z" />
<glyph unicode="&#xfc;" horiz-adv-x="1189" d="M176 371v587h139v-530q0 -79 12.5 -138t41.5 -105t80.5 -69.5t125.5 -23.5q120 0 205.5 97t85.5 278v491h140v-747q0 -123 8 -211h-133q-9 115 -9 164h-4q-39 -83 -132 -136t-195 -53q-179 0 -272 106t-93 290zM291 1325q0 41 30 73t74 32t74.5 -32t30.5 -73t-30.5 -72.5 t-74.5 -31.5t-74 31.5t-30 72.5zM684 1325q0 41 30 73t74 32t74.5 -32t30.5 -73t-30.5 -72.5t-74.5 -31.5t-74 31.5t-30 72.5z" />
<glyph unicode="&#xfd;" horiz-adv-x="999" d="M33 958h155l326 -808h4l297 808h152l-478 -1206q-47 -121 -115.5 -182.5t-185.5 -61.5q-58 0 -125 13l15 127q53 -17 102 -17q67 0 109.5 42t75.5 128l77 201zM426 1155l205 295h186l-270 -295h-121z" />
<glyph unicode="&#xfe;" horiz-adv-x="1296" d="M188 -492v2040h136v-755h4q60 92 155 141t201 49q214 0 356 -143.5t142 -360.5t-142 -360.5t-356 -143.5q-109 0 -203.5 48t-152.5 139h-4v-654h-136zM311 479q0 -165 99 -273t262 -108q164 0 263 108t99 273t-99 273t-263 108q-163 0 -262 -108t-99 -273z" />
<glyph unicode="&#xff;" horiz-adv-x="999" d="M33 958h155l326 -808h4l297 808h152l-478 -1206q-47 -121 -115.5 -182.5t-185.5 -61.5q-58 0 -125 13l15 127q53 -17 102 -17q67 0 109.5 42t75.5 128l77 201zM215 1325q0 41 30 73t74 32t74.5 -32t30.5 -73t-30.5 -72.5t-74.5 -31.5t-74 31.5t-30 72.5zM608 1325 q0 41 30.5 73t74.5 32t74 -32t30 -73t-30 -72.5t-74 -31.5t-74.5 31.5t-30.5 72.5z" />
<glyph unicode="&#x152;" horiz-adv-x="2031" d="M145 725q0 140 44.5 260t119.5 204t173.5 144t206.5 88.5t218 28.5h1004v-131h-682v-500h633v-129h-633v-559h706v-131h-1028q-110 0 -218 28.5t-206.5 88.5t-173.5 144t-119.5 204t-44.5 260zM301 725q0 -115 40.5 -219.5t118.5 -189t204 -135t284 -50.5h133v1188h-133 q-158 0 -284 -50.5t-204 -135t-118.5 -189t-40.5 -219.5z" />
<glyph unicode="&#x153;" horiz-adv-x="2035" d="M115 479q0 218 143 361t365 143q143 0 253.5 -61.5t176.5 -171.5q64 109 170 171t237 62q147 0 253 -65t157 -170.5t51 -239.5q0 -41 -2 -66h-799q3 -145 105.5 -246.5t249.5 -101.5q101 0 182.5 48t124.5 118l104 -82q-160 -203 -413 -203q-137 0 -245.5 62t-172.5 172 q-66 -110 -177.5 -172t-254.5 -62q-222 0 -365 143t-143 361zM258 479q0 -164 101 -274.5t264 -110.5q164 0 265 110t101 275t-101 276t-265 111q-163 0 -264 -111t-101 -276zM1126 553h654q-6 140 -89.5 226.5t-228.5 86.5q-136 0 -231.5 -93t-104.5 -220z" />
<glyph unicode="&#x178;" horiz-adv-x="1232" d="M0 1450h184l437 -702l440 702h172l-543 -825v-625h-147v625zM319 1735q0 41 30.5 72.5t74.5 31.5t74 -31.5t30 -72.5t-30 -73t-74 -32t-74.5 32t-30.5 73zM713 1735q0 41 30 72.5t74 31.5t74.5 -31.5t30.5 -72.5t-30.5 -73t-74.5 -32t-74 32t-30 73z" />
<glyph unicode="&#x2c6;" horiz-adv-x="491" d="M-59 1155l223 295h164l223 -295h-135l-170 221l-170 -221h-135z" />
<glyph unicode="&#x2dc;" horiz-adv-x="491" d="M-86 1180q36 213 188 213q58 0 150 -47q5 -2 20.5 -9.5t21.5 -10.5t19 -8.5t20.5 -8t18.5 -6t19.5 -4.5t17.5 -1q76 0 100 103h89q-36 -213 -189 -213q-61 0 -149 47t-138 47q-76 0 -100 -102h-88z" />
<glyph unicode="&#x2000;" horiz-adv-x="967" />
<glyph unicode="&#x2001;" horiz-adv-x="1935" />
<glyph unicode="&#x2002;" horiz-adv-x="967" />
<glyph unicode="&#x2003;" horiz-adv-x="1935" />
<glyph unicode="&#x2004;" horiz-adv-x="645" />
<glyph unicode="&#x2005;" horiz-adv-x="483" />
<glyph unicode="&#x2006;" horiz-adv-x="322" />
<glyph unicode="&#x2007;" horiz-adv-x="322" />
<glyph unicode="&#x2008;" horiz-adv-x="241" />
<glyph unicode="&#x2009;" horiz-adv-x="387" />
<glyph unicode="&#x200a;" horiz-adv-x="107" />
<glyph unicode="&#x2010;" horiz-adv-x="655" d="M98 438v117h459v-117h-459z" />
<glyph unicode="&#x2011;" horiz-adv-x="655" d="M98 438v117h459v-117h-459z" />
<glyph unicode="&#x2012;" horiz-adv-x="655" d="M98 438v117h459v-117h-459z" />
<glyph unicode="&#x2013;" horiz-adv-x="819" d="M61 438v117h697v-117h-697z" />
<glyph unicode="&#x2014;" horiz-adv-x="1228" d="M61 438v117h1106v-117h-1106z" />
<glyph unicode="&#x2018;" horiz-adv-x="454" d="M86 969l166 481h117l-138 -481h-145z" />
<glyph unicode="&#x2019;" horiz-adv-x="454" d="M86 969l137 481h146l-166 -481h-117z" />
<glyph unicode="&#x201a;" horiz-adv-x="454" d="M86 -287l137 482h146l-166 -482h-117z" />
<glyph unicode="&#x201c;" horiz-adv-x="792" d="M86 969l166 481h117l-138 -481h-145zM424 969l166 481h117l-138 -481h-145z" />
<glyph unicode="&#x201d;" horiz-adv-x="792" d="M86 969l137 481h146l-166 -481h-117zM424 969l137 481h146l-166 -481h-117z" />
<glyph unicode="&#x201e;" horiz-adv-x="792" d="M86 -287l137 482h146l-166 -482h-117zM424 -287l137 482h146l-166 -482h-117z" />
<glyph unicode="&#x2022;" horiz-adv-x="1024" d="M150 725q0 151 105.5 256.5t256.5 105.5t256.5 -105.5t105.5 -256.5t-105.5 -257t-256.5 -106t-256.5 106t-105.5 257z" />
<glyph unicode="&#x2026;" horiz-adv-x="2048" d="M231 98q0 44 31.5 77.5t79.5 33.5t79.5 -33.5t31.5 -77.5t-31.5 -77t-79.5 -33t-79.5 33t-31.5 77zM913 98q0 44 31.5 77.5t79.5 33.5t79.5 -33.5t31.5 -77.5t-31.5 -77t-79.5 -33t-79.5 33t-31.5 77zM1595 98q0 44 31.5 77.5t79.5 33.5t79.5 -33.5t31.5 -77.5t-31.5 -77 t-79.5 -33t-79.5 33t-31.5 77z" />
<glyph unicode="&#x202f;" horiz-adv-x="387" />
<glyph unicode="&#x2039;" horiz-adv-x="645" d="M121 492l287 428l96 -68l-236 -360l236 -361l-96 -68z" />
<glyph unicode="&#x203a;" horiz-adv-x="645" d="M141 131l236 361l-236 360l97 68l286 -428l-286 -429z" />
<glyph unicode="&#x205f;" horiz-adv-x="483" />
<glyph unicode="&#x20ac;" d="M25 485l41 113h100q-6 81 -6 115q0 69 8 135h-141l41 113h116q56 248 220 387t389 139q179 0 305 -66l-51 -125q-106 62 -261 62q-174 0 -291.5 -105.5t-160.5 -291.5h614l-37 -113h-596q-10 -68 -10 -133q0 -51 8 -117h525l-37 -113h-473q32 -178 158.5 -285.5 t299.5 -107.5q161 0 279 82l59 -115q-137 -96 -356 -96q-120 0 -224 43.5t-177 117t-121 166.5t-66 195h-155z" />
<glyph unicode="&#x2122;" horiz-adv-x="2048" d="M147 1339v111h674v-111h-272v-733h-123v733h-279zM997 606v844h191l264 -647l264 647h185v-844h-123v709h-4l-285 -709h-80l-285 709h-4v-709h-123z" />
<glyph unicode="&#x25fc;" horiz-adv-x="962" d="M0 0v963h963v-963h-963z" />
</font>
</defs>
</svg>
